<?xml version="1.0" encoding="UTF-8"?>
<svg xmlns="http://www.w3.org/2000/svg" version="1.1" xmlns:xlink="http://www.w3.org/1999/xlink" viewBox="0 0 1024 1287.38">
  <defs>
    <style>
      .cls-1 {
        fill: #35c9d0;
      }

      .cls-2 {
        fill: #010101;
      }

      .cls-3 {
        fill: #3b4852;
      }

      .cls-4 {
        fill: url(#linear-gradient-2);
      }

      .cls-5 {
        fill: #748995;
      }

      .cls-6 {
        fill: #1c2227;
      }

      .cls-7 {
        fill: #ec7060;
      }

      .cls-8 {
        fill: #070808;
      }

      .cls-9 {
        fill: #fdffd2;
      }

      .cls-10 {
        fill: #283238;
      }

      .cls-11 {
        fill: #425763;
      }

      .cls-12 {
        opacity: .53;
      }

      .cls-13 {
        fill: url(#linear-gradient-4);
      }

      .cls-14 {
        fill: none;
        stroke: url(#linear-gradient-6);
        stroke-miterlimit: 10;
        stroke-width: 15px;
      }

      .cls-15 {
        fill: url(#linear-gradient-3);
      }

      .cls-16 {
        fill: url(#linear-gradient-5);
      }

      .cls-17 {
        fill: #9e9e9c;
      }

      .cls-18 {
        fill: #6d8b9c;
      }

      .cls-19 {
        fill: #354149;
      }

      .cls-20 {
        fill: #a1bdc6;
      }

      .cls-21 {
        fill: #607a8b;
      }

      .cls-22 {
        fill: #3d4e59;
      }

      .cls-23 {
        fill: #b0e1ea;
      }

      .cls-24 {
        fill: #f2f2f0;
      }

      .cls-25 {
        fill: #9fbeca;
      }

      .cls-26 {
        fill: #2a2d2f;
      }

      .cls-27 {
        fill: #4a5a64;
      }

      .cls-28 {
        fill: #424649;
      }

      .cls-29 {
        fill: #e74a93;
      }

      .cls-30 {
        fill: #18e849;
      }

      .cls-31 {
        fill: #d0c8b2;
      }

      .cls-32 {
        fill: #243037;
      }

      .cls-33 {
        fill: #040404;
      }

      .cls-34 {
        fill: #f4eedb;
      }

      .cls-35 {
        fill: url(#linear-gradient);
      }

      .cls-36 {
        fill: #6dbfd2;
      }

      .cls-37 {
        fill: #050708;
      }

      .cls-38 {
        fill: #9dd7e4;
      }

      .cls-39 {
        fill: #efcc4d;
      }
    </style>
    <linearGradient id="linear-gradient" x1="426.33" y1="671" x2="704.59" y2="671" gradientUnits="userSpaceOnUse">
      <stop offset=".08" stop-color="#d67100"/>
      <stop offset=".15" stop-color="#ad5b00"/>
      <stop offset=".21" stop-color="#d26c00"/>
      <stop offset=".53" stop-color="#f9f290"/>
      <stop offset=".67" stop-color="#e98800"/>
      <stop offset=".83" stop-color="#f69800"/>
      <stop offset=".95" stop-color="#a13100"/>
    </linearGradient>
    <linearGradient id="linear-gradient-2" x1="368.5" y1="210" x2="669.5" y2="210" gradientUnits="userSpaceOnUse">
      <stop offset=".19" stop-color="#d67100"/>
      <stop offset=".27" stop-color="#ad5b00"/>
      <stop offset=".34" stop-color="#d26c00"/>
      <stop offset=".65" stop-color="#f9f290"/>
      <stop offset=".77" stop-color="#e98800"/>
      <stop offset=".9" stop-color="#f69800"/>
      <stop offset="1" stop-color="#a13100"/>
    </linearGradient>
    <linearGradient id="linear-gradient-3" x1="265.46" y1="259.99" x2="400.5" y2="259.99" gradientUnits="userSpaceOnUse">
      <stop offset=".08" stop-color="#d67100"/>
      <stop offset=".15" stop-color="#ad5b00"/>
      <stop offset=".21" stop-color="#d26c00"/>
      <stop offset=".53" stop-color="#f9f290"/>
      <stop offset=".67" stop-color="#e98800"/>
      <stop offset=".83" stop-color="#f69800"/>
      <stop offset=".95" stop-color="#a13100"/>
    </linearGradient>
    <linearGradient id="linear-gradient-4" x1="350.4" y1="309.37" x2="400.5" y2="309.37" gradientUnits="userSpaceOnUse">
      <stop offset="0" stop-color="#f9f290"/>
      <stop offset=".08" stop-color="#d67100"/>
      <stop offset=".15" stop-color="#ad5b00"/>
      <stop offset=".21" stop-color="#d26c00"/>
      <stop offset=".67" stop-color="#e98800"/>
      <stop offset=".83" stop-color="#f69800"/>
      <stop offset=".95" stop-color="#a13100"/>
    </linearGradient>
    <linearGradient id="linear-gradient-5" x1="417.42" y1="256.86" x2="637.46" y2="364.18" gradientUnits="userSpaceOnUse">
      <stop offset=".08" stop-color="#d67100"/>
      <stop offset=".15" stop-color="#ad5b00"/>
      <stop offset=".21" stop-color="#d26c00"/>
      <stop offset=".56" stop-color="#f9f290"/>
      <stop offset=".67" stop-color="#e98800"/>
      <stop offset=".83" stop-color="#f69800"/>
      <stop offset=".95" stop-color="#a13100"/>
    </linearGradient>
    <linearGradient id="linear-gradient-6" x1="49.09" y1="1024" x2="981.91" y2="1024" xlink:href="#linear-gradient"/>
  </defs>
  <!-- Generator: Adobe Illustrator 28.7.8, SVG Export Plug-In . SVG Version: 1.2.0 Build 200)  -->
  <g>
    <g id="Layer_1">
      <g>
        <path class="cls-35" d="M562.5,541h21.5c1.81,0,14.51,12.19,16.47,14.53,23.03,27.4,16.33,45.32,18.99,77.01.47,5.57.93,6.03,6.5,6.5,10.63.89,28.34.74,39.08,0,5.12-.35,6.86.11,7.46-5.53,4.25-40.09-4.49-59.44-27.51-89.51-.77-1.01-1.93-1.26-1.49-3.01h25.5c2.1,0,13.58,11.14,15.52,13.48,12.39,14.88,17.99,35.88,19.02,54.98,3.34,61.6-2.64,126.18,0,188.1.22,1.02-.72,3.45-1.55,3.45h-245c-.11,0-1.5-1.39-1.5-1.5v-204c0-18.85-14.16-40.22-27.72-52.21-.68-.6-1.9.07-1.28-2.29h26.5c2.21,0,14.49,12.04,16.48,14.52,11.2,13.98,16.09,33.28,17.06,50.94.47,8.49-1.44,21.43-.01,29.01.64,3.4,2.6,3.31,5.41,3.59,30.87,3.05,66.71-2.45,98.11,0,3.43.15,4.14-2.71,4.46-5.54,1.55-13.51-.16-33.13-3.76-46.28-4.91-17.93-15.09-33.4-28.26-46.24ZM490.21,663.21c-5.8,2.77-4.43,9.04,1.74,9.84h175.1c7.22-.94,7.23-9.18,0-10.1l-176.84.26ZM491.24,697.16c-2.37.44-4.99,2.7-4.79,5.29,2.03,19.96-2.53,44.74,0,64.1.53,4.06,1.76,4.15,5.49,4.51,11.58,1.13,42.94,1.45,54.1-.01,4.06-.53,4.15-1.76,4.51-5.49,1.93-19.89-1.6-42.87-.01-63.1.08-4.76-5.72-5.18-9.51-5.49-12.88-1.07-30.94.02-44.03.84-1.69.11-3.28-1.1-5.76-.64ZM580.24,697.24c-4.12.75-5.28,2.12-5.76,6.24-1.62,13.84-1.3,46.87-.03,61.06.2,2.22.24,4.36,2.04,5.96,10.79-.52,92.18,2.84,95.11-.91.7-.9.94-1.92.95-3.05-1.58-20.24,1.94-43.21.01-63.1-.51-5.24-2.48-6.04-7.51-6.49-26.88-2.39-57.54,1.68-84.81.29Z"/>
        <path class="cls-18" d="M392.5,478v-57h366.5c.11,0,1.5,1.39,1.5,1.5v54c0,.11-1.39,1.5-1.5,1.5h-366.5Z"/>
        <path class="cls-4" d="M669.5,250h-257.5c-2.54-5.07-2.66-11.99-4.18-17.82-5.71-21.89-15.38-40.55-32.31-55.69-2.35-2.1-6.74-3.24-7.01-6.49h242.5c1.66,0,9.36,2.68,11.48,3.52,28.09,11.13,45.59,47.59,47.02,76.48Z"/>
        <path class="cls-22" d="M228,360c11.33,18.17,21.73,37.34,31.44,56.56l.1,139.98c-4.05,14.92-10.41,29.35-15.93,43.84l-2.52.65-60.99-15.13-20.59-32.41v-193.5h68.5ZM230.23,420.26c-3.29-3.65-42.96-7.31-50.39-10.21-7.29,1.09-7.12,9.29-.18,11.29l46.39,8.52c4.62-.16,7.16-6.29,4.18-9.6ZM175.74,429.25c-2.75,2.78-1.22,8.02,2.52,9.49,7.12,2.81,34.62,7.68,42.75,8.24,4.06.28,9.4,1.25,10.33-3.73.64-3.44-1.42-5.05-4.37-6.22-12.92-5.12-33.37-4.04-47.1-8.94-1.28-.05-3.24.25-4.13,1.16ZM175.74,455.76c4.02,4.03,41.52,7.09,49.29,10.25,7.63-.73,9.1-8.79,1.31-11.36-13.48-4.44-32.49-4.19-46.45-8.59-5.34-1.1-6.98,6.84-4.14,9.69ZM236.25,541.24l-50.42-13.98c-8.42,1.87-8.89,8.29-.6,11.51,8.07,3.14,37.03,11.52,44.91,12.18,7.33.61,9.94-6.45,6.11-9.7Z"/>
        <path class="cls-18" d="M871.5,554h-101v-133h99.5c.11,0,1.5,1.39,1.5,1.5v131.5Z"/>
        <path class="cls-15" d="M400.5,250h-40.5c-7.25-15.97-22.24-29.29-40.54-20.54-28.43,13.6-22.86,70.77,12.04,71.54v47.5c0,.11-1.39,1.5-1.5,1.5h-21c-.96,0-6.9-3.4-7.33-4.67-1.21-3.58.3-12.67-.41-17.59-1.5-10.38-13.98-49.61-18.57-59.43-3.74-8-9.45-12.32-17.23-15.98.38-31.62,21.64-73.82,54.84-81.03,45.92-9.98,76.58,38.83,80.2,78.7Z"/>
        <path class="cls-25" d="M746,388c1.32.41,11.53,22.01,10.5,22.99-14.16-.18-28.37.24-42.54.05-98.98-1.38-198.28-.08-296.92-1.08-4.73-.05-24.92.97-27.05-.95-3.21-2.88-8.24-16.5-10.49-21.01h366.5Z"/>
        <path class="cls-34" d="M715.51,350.01c-2.66.04-5.35-.07-8.01-.01v-16c0-16.86,1.92-40.59.02-56.52-1.83-15.35-25.85-7.61-36.44-9.5-1.17.21-.42,2.88-.58,4.02-.23,1.62.02,1.59,0,2-.11,2.38-.07,3.69,0,6-4.08-.51-1.05,2.19-1,3,.2,3.51-1.74,7.26-1,11-.27-.1-.67.08-1,0-1.27,7.92-4.81,14.84-8,22-.12.28.12.72,0,1-1.03,2.31-2.65,4.39-3,7h-1c-2.01,3.95-4.05,8.65-8,11v1c-3.8,4.21-10.83,12.99-16.55,13.95-31.81.15-63.65-.02-95.45.05-12.32.03-24.68.01-37,0-6.65,0-13.35.01-20,0-7.99-.01-16.01.01-24,0-25.65-.03-51.35.02-76.99-.01-.46-1.73.71-1.99,1.48-3,14.67-19.12,21.64-24.81,28.51-49.99.15-.57-.15-1.42,0-2,.1-.41.79-1.09,1-2,.74-3.19,4.24-22.76,3-24-2.91.47-10.22-1.53-11,2-2.01.7-1.84-1.8-2.69-1.98-2.94-.65-8.81.05-12.31-.02-7.94-.15-17.19-.52-25,0-14.05.94-9.83,10.65-10,22-.3,19.64.22,39.36,0,59-2.99.1-6.02-.07-9.01.01l-.03-73.55c.45-7.16,4.9-13.92,11.97-16.03l48.11-.07,296.5-.4c8.01-.23,16.14,5.46,17.4,13.6,1,6.49-.04,13.57.01,19.9.17,18.85-.03,37.71.06,56.55Z"/>
        <path class="cls-21" d="M759.5,489c-.94,2.66,3.09,20-.5,20h-366.5c-.13-4.16.16-8.37.05-12.54-.04-1.58-2.07-7.46.45-7.46h366.5Z"/>
        <polygon class="cls-22" points="732.5 360 740.5 377 374 377 365.5 360 732.5 360"/>
        <path class="cls-22" d="M260.5,643c.12,45.98.33,92.06-.51,138.01l-45.33-17.67c-.21-39.77-.27-79.58-.16-119.34l46-1Z"/>
        <path class="cls-21" d="M795.5,644c-.93,45.95.7,92.04,0,138h-42c.09-45.98-.12-92.02,0-138h42Z"/>
        <path class="cls-21" d="M312.5,644c-.93,45.95.7,92.04,0,138h-41c.09-45.98-.12-92.02,0-138h41Z"/>
        <path class="cls-25" d="M353,360l23.72,46.28.78,4.72c-36.38-.05-72.75.57-109.01-1.48l-26.99-49.51h111.5Z"/>
        <path class="cls-18" d="M381.5,447v107h-111v-107h111ZM289.21,460.21c-2.1,1.01-3.77,2.8-3.76,5.24,2.23,21.8-2.79,48.97,0,70.1.39,2.94,1.27,4.39,4.5,4.5,22.91-1.67,48.53,2.06,71.09,0,5.76-.53,6.98-1.83,7.5-7.5,1.95-21.3-1.59-45.48,0-67.1-.09-2.97-2.5-5.4-5.5-5.5l-73.84.26Z"/>
        <path class="cls-22" d="M252.5,349h-67v-87.5c0-.11,1.39-1.5,1.5-1.5h24c1.84,0,10.18,1.95,12.19,2.81,5.39,2.31,8.65,7.01,10.79,12.21,7.22,17.56,11.11,37.84,18.52,55.48v18.5Z"/>
        <path class="cls-25" d="M837,360l30.5,50.99c-29.7-1.37-61.03,1.83-90.54.05-1.89-.11-7.47-.49-8.55-1.69l-22.91-49.35h91.5Z"/>
        <path class="cls-11" d="M254.5,603l14.98-38.52c36.21-.78,72.78-1.05,109.01.53l-15.5,37.99h-108.5Z"/>
        <polygon class="cls-11" points="867.5 565 849.5 603 754.5 603 770 565 867.5 565"/>
        <path class="cls-22" d="M743.5,649c.02,5.07-1.04,10.07-1.04,14.46-.03,39.18.11,78.37.04,117.54-7.35-3.3-20.1-5.15-26.73-8.75-.89-.48-1.79-.79-2.1-1.9-.27-30.1-.2-60.24-.16-90.34l24.97-27.52,5.03-3.48Z"/>
        <rect class="cls-22" x="392.5" y="520" width="323" height="10"/>
        <path class="cls-22" d="M294.5,837l-110-42.5v-20.5c7.34-.66,15.73-3.1,23.01-1.51,15.71,7.78,33.84,12.28,49.67,19.33,12.58,5.61,25.03,15.13,37.32,21.68v23.5Z"/>
        <path class="cls-13" d="M398.5,287c-1.05,5.14-1.95,9.93-3.51,14.99-5.78,18.78-22.83,47.25-44.49,48.01.22-19.64-.3-39.36,0-59,6.87-4.84,8.81-14.24,10-22,7.81-.52,17.06-.15,25,0,3.5.07,9.37-.63,12.31.02.85.18.68,2.68,2.69,1.98-.89,4.03-1.13,9.41-2,14-.12.62.12,1.39,0,2Z"/>
        <path class="cls-1" d="M662.5,629h-32c.56-23.93-1.78-48.42-14.19-69.31l-13.81-18.69h21.5c4.44,0,21.37,18.32,24.31,22.69,5.52,8.21,14.19,29.19,14.19,38.81v26.5Z"/>
        <polygon class="cls-29" points="583.5 600 584.5 629 496.5 629 496.5 600 583.5 600"/>
        <path class="cls-11" d="M444.5,603h-68l14.61-39.06,42.4.55c6.84,11.62,11.91,24.79,10.99,38.51Z"/>
        <path class="cls-39" d="M580.5,590h-86l-6-24h81.5c4.48,7.4,9.07,15.34,10.5,24Z"/>
        <rect class="cls-22" x="324.5" y="712" width="121" height="16"/>
        <path class="cls-22" d="M778.5,838l-66-26.01c-.57-1.34,1-2.98,1-3.49v-25.5c9.27,3.1,20.65,5.98,29.38,10.12,10.69,5.08,21.23,13.93,32.51,18.49l3.11,2.89v23.5Z"/>
        <path class="cls-25" d="M254,260c4.91.61,13.89,5.08,16.94,9.06,3.93,5.11,16.85,46.75,18.31,54.69.26,1.42.35,2.82.24,4.25-1.08.38-2.18-1-2.49-1h-24l-23.5-67c4.62.41,10-.56,14.5,0Z"/>
        <rect class="cls-18" x="270.5" y="421" width="111" height="15"/>
        <path class="cls-11" d="M757.5,564c1.45,1.48-12.73,34.05-14.99,38.51l-28.9.38c-1.82-13.39-4.52-26.55-10.11-38.89h54Z"/>
        <path class="cls-32" d="M214.5,644c0-.07-.68-.5-.67-1.28l.68-36.72,30.49,8h15.5c.02,9.65-.03,19.35,0,29l-46,1Z"/>
        <path class="cls-32" d="M713.5,680c.03-21.98-.02-44.02,0-66h29c.13,9.5-.16,19.03-.04,28.54.03,2.25,1.03,4.35,1.04,6.46l-5.03,3.48-24.97,27.52Z"/>
        <path class="cls-17" d="M707.5,334v16c-5.92.14-12.1.35-17.98-.52l-30.02-32.48c.12-.28-.12-.72,0-1,3.19-7.16,6.73-14.08,8-22,.33.08.73-.1,1,0,3.39,1.31,4.52,2.91,7.03,5.47,7.86,8.06,14.91,17.18,22.46,25.54,2.61,2.9,6.14,7.16,9.51,8.99Z"/>
        <path class="cls-22" d="M753.5,644c.03-9.98-.02-20.02,0-30h43c-.23,8.85.28,17.76.07,26.62-.04,1.81-1.07,3.2-1.07,3.38h-42Z"/>
        <path class="cls-22" d="M271.5,644c.03-9.98-.02-20.02,0-30h42c-.23,8.85.28,17.76.07,26.62-.04,1.81-1.07,3.2-1.07,3.38h-41Z"/>
        <path class="cls-21" d="M790,815h45c.11,0,1.5,1.39,1.5,1.5v23c0,.11-1.39,1.5-1.5,1.5h-45c-.11,0-1.5-1.39-1.5-1.5v-23c0-.27,1.17-.99,1.5-1.5Z"/>
        <path class="cls-21" d="M307,815h45c.11,0,1.5,1.39,1.5,1.5v23c0,3.43-17.69.48-20.45.45-7.45-.08-17.67,1.87-24.1,1.1-1-.12-3.45-.45-3.45-1.55v-23c0-.27,1.17-.99,1.5-1.5Z"/>
        <path class="cls-29" d="M544,541c1.7.37,19.63,13.18,17.49,14.99-26.47-.73-52.88,2.47-79.29.03l-10.7-15.02h72.5Z"/>
        <path class="cls-11" d="M347.37,251.85c-.14.24-3.66,1.77-4.79,2.73-12.37,10.58-11.15,20.14-12.09,35.42-27.88-2.91-23.63-58.31,5.29-51.79,3.68.83,13.48,10.39,11.58,13.64Z"/>
        <polygon class="cls-32" points="759.5 520 759.5 548 726.66 532.84 726.5 520 759.5 520"/>
        <path class="cls-22" d="M742.5,552.99l-44.51,1.02-1.97-1.03-7.51-10.98c1.38-1.14,28.92-1.46,32.27-.78,2.74.56,15.65,7.41,18.75,9.25,1.09.65,2.75,1.01,2.98,2.51Z"/>
        <path class="cls-17" d="M797,793c7.18.2,18.76,5.6,25.21,9.76.99.64,1.78-.12,1.29,2.24h-40.5c-1.03,0-16.36-8.57-18.21-9.76-.99-.64-1.78.12-1.29-2.24,11.14.22,22.35-.3,33.5,0Z"/>
        <path class="cls-17" d="M320,793c1.08.22,17.41,8.6,19.21,9.76.99.64,1.78-.12,1.29,2.24h-40.5c-1.14,0-17.23-10.17-19.5-12h39.5Z"/>
        <path class="cls-17" d="M678.5,350h-17.5c-.97,0-11.63-12.36-13.5-14v-1c3.95-2.35,5.99-7.05,8-11h1c1.43.32,18.13,18.95,19.99,21.51.97,1.35,2.23,2.64,2.01,4.49Z"/>
        <rect class="cls-11" x="263.5" y="338" width="27" height="11"/>
        <path class="cls-11" d="M818.5,851c0,2.96.9,7.74-2.7,8.8-2.48.73-24.85.57-27.36-.24-3.66-1.19-4.25-5.17-3.94-8.56h34Z"/>
        <path class="cls-22" d="M335.5,851c-.09,3.64,1.23,7.19-2.95,8.55-2.83.92-24.23.94-27.11,0-3.66-1.19-4.25-5.17-3.94-8.56h34Z"/>
        <path class="cls-22" d="M421.5,553h-29v-12c7.23-.92,14.05,2.02,20.36,5.15,3,1.49,8.4,3.12,8.64,6.86Z"/>
        <path class="cls-22" d="M219.5,819.01c1.02,1.05-.95,2.7-2.51,2.98-3.05.56-18.76.4-21.54-.44-5.74-1.74-3.68-7.92-3.95-12.54l28,10Z"/>
        <path class="cls-22" d="M683,822c-2.48-.69-5.12-7.31-4.5-10,2.66-2.67,22.93,5.92,26.81,7.73,1.41.66,2.72-.61,2.19,2.27-6.45-1.15-18.88,1.56-24.5,0Z"/>
        <path class="cls-8" d="M580.24,697.24c27.27,1.39,57.92-2.68,84.81-.29,5.03.45,7,1.25,7.51,6.49,1.93,19.89-1.59,42.86-.01,63.1,0,1.13-.24,2.15-.95,3.05-2.92,3.75-84.32.4-95.11.91-1.8-1.61-1.84-3.74-2.04-5.96-1.27-14.19-1.59-47.22.03-61.06.48-4.12,1.64-5.49,5.76-6.24ZM585.5,761h75.5c.11,0,1.5-1.39,1.5-1.5v-50c0-.11-1.39-1.5-1.5-1.5h-75.5v53Z"/>
        <path class="cls-8" d="M491.24,697.16c2.48-.46,4.07.75,5.76.64,13.1-.82,31.15-1.91,44.03-.84,3.79.31,9.59.73,9.51,5.49-1.58,20.24,1.95,43.21.01,63.1-.36,3.73-.46,4.96-4.51,5.49-11.16,1.46-42.53,1.14-54.1.01-3.73-.36-4.96-.46-5.49-4.51-2.54-19.36,2.03-44.14,0-64.1-.2-2.59,2.42-4.85,4.79-5.29ZM496.5,761h42.5c.11,0,1.5-1.39,1.5-1.5v-50c0-.11-1.39-1.5-1.5-1.5h-41c-.11,0-1.5,1.39-1.5,1.5v51.5Z"/>
        <path class="cls-2" d="M490.21,663.21l176.84-.26c7.23.93,7.22,9.16,0,10.1h-175.1c-6.17-.8-7.53-7.07-1.74-9.84Z"/>
        <path class="cls-8" d="M236.25,541.24c3.82,3.25,1.22,10.31-6.11,9.7-7.88-.66-36.83-9.04-44.91-12.18-8.29-3.22-7.82-9.64.6-11.51l50.42,13.98Z"/>
        <path class="cls-8" d="M175.74,455.76c-2.84-2.85-1.19-10.79,4.14-9.69,13.96,4.4,32.97,4.14,46.45,8.59,7.8,2.57,6.32,10.63-1.31,11.36-7.77-3.16-45.27-6.22-49.29-10.25Z"/>
        <path class="cls-8" d="M230.23,420.26c2.98,3.31.45,9.44-4.18,9.6l-46.39-8.52c-6.94-2-7.11-10.2.18-11.29,7.43,2.9,47.1,6.56,50.39,10.21Z"/>
        <path class="cls-8" d="M175.74,429.25c.89-.9,2.85-1.21,4.13-1.16,13.73,4.9,34.18,3.82,47.1,8.94,2.95,1.17,5.01,2.78,4.37,6.22-.93,4.98-6.27,4.01-10.33,3.73-8.13-.56-35.63-5.43-42.75-8.24-3.74-1.47-5.27-6.72-2.52-9.49Z"/>
        <path class="cls-8" d="M360.5,269c-1.19,7.76-3.13,17.16-10,22,.17-11.35-4.05-21.06,10-22Z"/>
        <path class="cls-8" d="M289.21,460.21l73.84-.26c3,.1,5.41,2.53,5.5,5.5-1.59,21.62,1.94,45.8,0,67.1-.52,5.67-1.74,6.97-7.5,7.5-22.57,2.06-48.19-1.67-71.09,0-3.23-.11-4.11-1.56-4.5-4.5-2.79-21.13,2.22-48.3,0-70.1,0-2.44,1.67-4.23,3.76-5.24ZM309.51,469.99c-11.17.25-15.74-3.2-14.05,10.56.58,4.76,6.27,4.03,10.6,3.5,6.25-.76,2.49-9.15,3.46-14.05ZM333.51,469.99h-13.01v13.01h13.01v-13.01ZM357.51,469.99h-13.01v13.01h13.01v-13.01ZM358.5,494h-63c.5,2.72-1.41,10.86,1.64,11.86,8.22-1.14,56.93,2.14,60.42-.3,1.94-1.35.53-8.92.94-11.56ZM320.5,516v14h13.01c.55-13.65,1.65-15.22-13.01-14ZM309.51,516.99h-13.01v12.01h13.01v-12.01ZM357.51,516.99h-13.01c.23,10.03-2.94,14.6,9.56,13.05,6.14-.76,2.57-8.24,3.45-13.05Z"/>
        <path class="cls-1" d="M585.5,761v-53h75.5c.11,0,1.5,1.39,1.5,1.5v50c0,.11-1.39,1.5-1.5,1.5h-75.5Z"/>
        <path class="cls-29" d="M496.5,761v-51.5c0-.11,1.39-1.5,1.5-1.5h41c.11,0,1.5,1.39,1.5,1.5v50c0,.11-1.39,1.5-1.5,1.5h-42.5Z"/>
        <path class="cls-25" d="M358.5,494c-.41,2.64,1,10.21-.94,11.56-3.49,2.44-52.2-.85-60.42.3-3.05-1-1.14-9.14-1.64-11.86h63Z"/>
        <path class="cls-29" d="M309.51,469.99c-.97,4.9,2.8,13.29-3.46,14.05-4.33.53-10.01,1.27-10.6-3.5-1.69-13.76,2.88-10.31,14.05-10.56Z"/>
        <path class="cls-39" d="M320.5,516c14.66-1.22,13.55.35,13.01,14.01h-13.01v-14.01Z"/>
        <rect class="cls-24" x="320.49" y="469.99" width="13.01" height="13.01"/>
        <rect class="cls-1" x="344.49" y="469.99" width="13.01" height="13.01"/>
        <path class="cls-25" d="M357.51,516.99c-.89,4.81,2.69,12.29-3.45,13.05-12.5,1.55-9.33-3.02-9.56-13.05h13.01Z"/>
        <rect class="cls-24" x="296.49" y="516.99" width="13.01" height="12.01"/>
        <path class="cls-16" d="M411.5,269l259.58-1.02s-1.28,64.2-40.13,81.97l-253.44.04s-.7-1.37,1.02-2.53,32.84-37.03,32.97-78.46Z"/>
        <g class="cls-12">
          <path class="cls-24" d="M715.51,350.01c-2.66.04-5.35-.07-8.01-.01v-16c0-16.86,1.92-40.59.02-56.52-1.83-15.35-25.85-7.61-36.44-9.5-1.17.21-.42,2.88-.58,4.02-.23,1.62.02,1.59,0,2-.11,2.38-.07,3.69,0,6-4.08-.51-1.05,2.19-1,3,.2,3.51-1.74,7.26-1,11-.27-.1-.67.08-1,0-6.59-1.62-11.83-.69-18.54-.96-3.46-.14-6.58-.99-10.46-1.04-2.66-.03-5.34-.02-8,0-6.33.04-13.31,1.08-20,1-.16,0-1.31-.98-3-1,.02-1.96-1.34-2.78-2.48-4.01-4.51-4.89-11.01-11.12-14.97-16.09-.79-1-.4-2.9-.55-2.9h-121c-2.04,6.21,4.1,6.03,4.84,7.19.5.8-.19,2.53.38,3.56.38.67,4.33,2.36,5.44,3.59.59.65.61,2.21,1.31,3.14,1.62,2.16,4.68,3.12,4.03,6.52h-15c-.15,0,.16,2.02-.52,2.94-2.38,3.21-4.61.64-2.48-2.93-4.78.8-9.56-.79-14-1.01-6.38-.31-13.58-.18-20,0-7.63.21-16.02,1.9-24,1,.74-3.19,4.24-22.76,3-24-2.91.47-10.22-1.53-11,2-2.01.7-1.84-1.8-2.69-1.98-2.94-.65-8.81.05-12.31-.02-7.94-.15-17.19-.52-25,0-14.05.94-9.83,10.65-10,22-.3,19.64.22,39.36,0,59-2.99.1-6.02-.07-9.01.01l-.03-73.55c.45-7.16,4.9-13.92,11.97-16.03l48.11-.07,296.5-.4c8.01-.23,16.14,5.46,17.4,13.6,1,6.49-.04,13.57.01,19.9.17,18.85-.03,37.71.06,56.55Z"/>
          <path class="cls-31" d="M607.5,292c1.69.02,2.84,1,3,1l37,42v1c-3.8,4.21-10.83,12.99-16.55,13.95-31.81.15-63.65-.02-95.45.05l-48.99-57.99c40.31.3,80.69-.43,120.99,0Z"/>
          <path class="cls-34" d="M452.5,292c4.44.22,9.22,1.81,14,1.01-2.13,3.57.1,6.14,2.48,2.93.68-.92.37-2.94.52-2.94h15c.65-3.4-2.41-4.36-4.03-6.52-.7-.93-.73-2.49-1.31-3.14-1.11-1.23-5.06-2.92-5.44-3.6-.58-1.03.12-2.76-.38-3.56-.74-1.16-6.88-.98-4.84-7.19h121c.15,0-.24,1.9.55,2.9,3.96,4.97,10.46,11.2,14.96,16.09,1.14,1.23,2.5,2.06,2.48,4.01-40.31-.42-80.68.31-120.99,0l48.99,57.99c-12.32.03-24.68,0-37,0,.25-2.47-1.32-4.1-2.59-5.91-11.51-16.29-29.19-31.49-41.43-47.56-1.13-1.48-2.41-2.19-1.97-4.53Z"/>
          <path class="cls-31" d="M385.5,269c2.57,6.38,8.75,10.67,13,16-.12.62.12,1.39,0,2-1.05,5.14-1.95,9.93-3.51,14.99-5.79,18.77-22.84,47.24-44.49,48.01.22-19.64-.3-39.36,0-59,6.87-4.84,8.81-14.24,10-22,7.81-.52,17.06-.15,25,0Z"/>
          <path class="cls-31" d="M407.5,297c1.97.04,2.81,1.21,3.99,2.51,13.08,14.54,26.53,28.93,38.98,44.02,1.5,1.82,3.51,4.14,4.03,6.47-25.65-.03-51.35.02-76.99,0-.45-1.73.72-2,1.49-3,14.67-19.12,21.63-24.82,28.51-49.99Z"/>
          <path class="cls-34" d="M432.5,292c-.16,2.94,2.36,5.31,4.03,7.47,11.39,14.78,26.1,28.58,37.94,43.06,1.68,2.05,4.18,4.62,4.03,7.47-7.99,0-16.01,0-24,0-.52-2.33-2.53-4.65-4.03-6.47-12.45-15.08-25.91-29.48-38.98-44.02-1.17-1.3-2.02-2.47-3.99-2.51.15-.57-.15-1.42,0-2,.1-.41.79-1.09,1-2,7.98.9,16.37-.79,24-1Z"/>
          <path class="cls-17" d="M707.5,334v16c-5.92.14-12.1.35-17.98-.52l-30.02-32.48c.12-.28-.12-.72,0-1,3.19-7.16,6.73-14.08,8-22,.33.08.73-.1,1,0,3.39,1.31,4.52,2.91,7.03,5.47,7.86,8.06,14.92,17.18,22.46,25.54,2.62,2.9,6.14,7.16,9.51,8.99Z"/>
          <path class="cls-31" d="M452.5,292c-.44,2.34.84,3.04,1.97,4.53,12.24,16.08,29.93,31.28,41.43,47.56,1.28,1.81,2.84,3.44,2.59,5.91-6.65,0-13.35,0-20,0,.15-2.85-2.35-5.41-4.03-7.47-11.84-14.47-26.55-28.28-37.94-43.06-1.67-2.16-4.19-4.54-4.03-7.47,6.42-.18,13.62-.31,20,0Z"/>
          <path class="cls-17" d="M656.5,324c1.43.32,18.13,18.95,19.99,21.51.98,1.35,2.23,2.63,2.01,4.49h-17.5c-.97,0-11.63-12.36-13.5-14v-1c3.95-2.35,5.99-7.05,8-11h1Z"/>
          <path class="cls-31" d="M638.5,292l21,24c-.12.28.12.72,0,1-1.03,2.31-2.65,4.39-3,7h-1c.02-1.98-1.35-2.77-2.48-4.01-6.79-7.47-14.45-15.48-20.55-23.46-1.13-1.48-2.41-2.19-1.97-4.53,2.66-.02,5.34-.03,8,0Z"/>
          <path class="cls-34" d="M655.5,324c-2.01,3.95-4.05,8.65-8,11l-37-42c6.69.08,13.67-.96,20-1-.43,2.34.84,3.04,1.97,4.53,6.09,7.98,13.76,15.99,20.55,23.46,1.13,1.24,2.5,2.04,2.48,4.01Z"/>
          <path class="cls-34" d="M667.5,294c-1.27,7.92-4.81,14.84-8,22l-21-24c3.88.05,7,.9,10.46,1.04,6.71.27,11.96-.67,18.54.96Z"/>
          <path class="cls-34" d="M385.5,269c3.5.07,9.37-.63,12.31.02.84.19.68,2.68,2.69,1.98-.89,4.03-1.13,9.41-2,14-4.25-5.33-10.43-9.62-13-16Z"/>
        </g>
        <g>
          <path class="cls-33" d="M854.13,457.42c2.4.13,4.12,1.45,4.7,3.8.28,10.28.33,20.61.26,30.9-.58,2.31-2.66,3.75-5.02,3.68-21.4-.2-42.8-.37-64.2-.51-2.31-.21-4.12-1.78-4.6-4.04-.19-10.31-.35-20.67-.18-30.99,1.28-4.27,4.68-3.69,8.21-3.66,18.65.18,37.3.51,55.95.81,1.6.03,3.29-.08,4.89,0ZM853.15,458.09c-9.45-.36-18.97-.2-28.42-.34-11.1-.16-22.23-.6-33.33-.55-3.17.02-5.6.64-5.77,4.35-.12,2.55.1,5.32.11,7.89.03,6.83-.15,13.73.08,20.55.1,2.91,1.73,4.47,4.61,4.62,4.85.25,10.03,0,14.92.04,9.14.08,18.27.16,27.4.23,6.99.05,14.04.32,21.03.21,2.59-.04,4.4-1.11,4.72-3.85l-.23-29.1c-.34-3.18-2.23-3.94-5.13-4.05Z"/>
          <path class="cls-26" d="M853.15,458.09c2.9.11,4.79.88,5.13,4.05l.23,29.1c-.33,2.74-2.13,3.81-4.72,3.85-6.99.11-14.04-.16-21.03-.21-9.13-.07-18.27-.15-27.4-.23-4.89-.04-10.07.2-14.92-.04-2.89-.15-4.52-1.71-4.61-4.62-.23-6.82-.05-13.72-.08-20.55-.01-2.57-.23-5.34-.11-7.89.17-3.71,2.6-4.34,5.77-4.35,11.1-.05,22.23.38,33.33.55,9.46.14,18.97-.02,28.42.34ZM853.5,458.96c-3.46-.14-6.95-.06-10.41-.12-15.9-.3-31.82-.66-47.73-.8-2.84-.02-6.25-.81-7.3,2.72-.11,9.93.17,19.88.29,29.81.33,2.28,2.02,3.18,4.17,3.29,5.38.28,11.09.03,16.51.09,14.46.15,28.93.46,43.4.45,2.73,0,5.05.32,5.67-3.1l-.31-29.35c-.45-2.52-2-2.9-4.28-2.99ZM786.73,461.29c-.23-.28-.67.02-.59.38.46,9.23.22,18.51.66,27.74.01.31-.01,1.47.34,1.5.43.03.34-.83.38-1.1-.27-7.95-.33-15.91-.56-23.86-.02-.59-.08-4.47-.23-4.65Z"/>
          <path class="cls-33" d="M853.5,458.96c2.28.09,3.83.46,4.28,2.99l.31,29.35c-.62,3.42-2.94,3.1-5.67,3.1-14.46.01-28.94-.3-43.4-.45-5.42-.06-11.12.19-16.51-.09-2.14-.11-3.84-1.01-4.17-3.29-.12-9.93-.39-19.88-.29-29.81,1.05-3.54,4.46-2.75,7.3-2.72,15.91.14,31.82.5,47.73.8,3.46.07,6.95-.01,10.41.12ZM854.54,459.63c-19.86-.18-39.64-.82-59.49-.95-2.69-.02-5.92-.75-6.48,2.86.2,9.48.29,18.97.36,28.46.18,2.39,1.6,3.11,3.81,3.21,2.75.12,5.55-.02,8.3,0,16.81.18,33.63.45,50.44.52,2.7.01,5.83.79,5.99-2.99.07-1.56-.1-3.29-.11-4.87-.05-7.83-.13-15.65-.18-23.48,0-1.5-1.12-2.71-2.63-2.76Z"/>
          <path class="cls-33" d="M786.73,461.29c.15.18.21,4.06.23,4.65.24,7.95.29,15.91.56,23.86-.04.27.05,1.14-.38,1.1-.35-.03-.32-1.18-.34-1.5-.44-9.23-.2-18.51-.66-27.74-.08-.36.36-.66.59-.38Z"/>
          <path class="cls-27" d="M854.54,459.63c1.51.06,2.64,1.26,2.63,2.76.05,7.83.13,15.65.18,23.48.01,1.58.18,3.31.11,4.87-.17,3.78-3.29,3.01-5.99,2.99-16.81-.07-33.63-.34-50.44-.52-2.75-.03-5.55.11-8.3,0-2.2-.09-3.63-.82-3.81-3.21-.07-9.49-.16-18.97-.36-28.46.57-3.62,3.79-2.88,6.48-2.86,19.85.13,39.63.77,59.49.95ZM841.1,460.1c-.97-.02-1.96.03-2.94.01-1.11-.02-2.23-.09-3.35-.11-3.48-.06-6.98-.13-10.47-.19-10.67-.19-21.35-.34-32.03-.52-3.96.13-2.93,3.51-2.91,6.34.07,8.23.16,16.47.3,24.71.53,2.82,3.76,2.05,5.81,2.08,3.57.05,7.15.17,10.72.21,1.06.01,2.12,0,3.19,0,1,.01,2.01-.02,3.02,0,14.03.15,28.07.32,42.1.43,1.74-.19,2.16-1.3,2.21-2.88.06-2.13-.12-4.4-.13-6.55-.05-6.8.16-13.88-.16-20.64-.07-1.5-.52-2.31-2.08-2.65-4.43-.06-8.85-.17-13.27-.25Z"/>
          <path class="cls-26" d="M824.35,459.82l-4.27,5.02c-5.24-.06-10.54-.07-15.8-.12-1.59-.02-3.27-.17-4.85-.14-1.19.02-2.06.61-2.04,1.89l.08,20.54c.06.75.51,1.43,1.29,1.58l-3.25,3.84c-2.05-.03-5.28.74-5.81-2.08-.13-8.24-.23-16.47-.3-24.71-.02-2.83-1.05-6.21,2.91-6.34,10.68.18,21.35.34,32.03.52Z"/>
          <path class="cls-26" d="M812.44,492.64l3.08-3.86c11.72.14,23.51.56,35.22.45.38,0,1,.02,1.33-.08.6-.17,1.08-.91,1.11-1.52-.28-6.75.15-13.55-.1-20.3-.07-1.88-.86-2.02-2.56-2.1-4.34-.22-8.97-.11-13.36-.17l3.93-4.96c4.42.08,8.85.18,13.27.25,1.56.34,2.01,1.14,2.08,2.65.32,6.76.1,13.84.16,20.64.02,2.15.2,4.42.13,6.55-.05,1.58-.47,2.68-2.21,2.88-14.03-.1-28.07-.28-42.1-.43Z"/>
          <path class="cls-28" d="M834.82,460.01l-4.09,4.95c-3.55-.05-7.1-.07-10.64-.12l4.27-5.02c3.49.06,6.98.12,10.47.19Z"/>
          <path class="cls-28" d="M809.32,488.78l-3.08,3.86c-3.57-.04-7.15-.15-10.72-.21l3.25-3.84c.25.05.61.06.87.07,3.12.16,6.52.08,9.68.12Z"/>
          <path class="cls-26" d="M838.16,460.11l-4.18,4.94c-1.08-.01-2.18-.08-3.26-.1l4.09-4.95c1.11.02,2.23.09,3.35.11Z"/>
          <path class="cls-28" d="M841.1,460.1l-3.93,4.96c-1.06-.02-2.13,0-3.19,0l4.18-4.94c.97.02,1.96-.03,2.94-.01Z"/>
          <path class="cls-26" d="M812.59,488.79l-3.17,3.85c-1.06-.01-2.13,0-3.19,0l3.08-3.86c1.07.01,2.18,0,3.27.02Z"/>
          <path class="cls-28" d="M815.52,488.78l-3.08,3.86c-1-.01-2.02.02-3.02,0l3.17-3.85c.98.01,1.96-.02,2.94-.01Z"/>
          <path class="cls-37" d="M815.52,488.78c-.98-.01-1.96.02-2.94.01-1.09-.01-2.2,0-3.27-.02-3.15-.04-6.55.04-9.68-.12-.27-.01-.62-.02-.87-.07-.78-.15-1.23-.83-1.29-1.58l-.08-20.54c-.02-1.27.85-1.86,2.04-1.89,1.58-.03,3.26.13,4.85.14,5.26.05,10.56.06,15.8.12,3.54.04,7.09.07,10.64.12,1.08.01,2.18.08,3.26.1,1.06.01,2.13,0,3.19,0,4.38.06,9.01-.05,13.36.17,1.7.08,2.49.22,2.56,2.1.25,6.75-.18,13.55.1,20.3-.03.61-.51,1.35-1.11,1.52-.33.1-.95.07-1.33.08-11.72.11-23.5-.31-35.22-.45ZM836.27,465.74c-1-.01-2.03.02-3.02,0-1.11-.02-2.23-.09-3.35-.11-3.52-.05-7.04-.07-10.56-.11-6.82-.08-13.64-.16-20.46-.23-1.15.36-.77,1.58-.77,2.52,0,5.44.03,10.88.09,16.32,0,.89-.1,1.88-.05,2.76.07,1.25.95,1.02,1.84,1.04,3.68.09,7.37.11,11.06.15,1.06.01,2.13,0,3.19,0,1.22.02,2.47.09,3.69.05,10.69.08,21.39.35,32.09.36.94,0,2.24.41,2.49-.84-.21-6.7.12-13.44-.1-20.13-.05-1.5-.29-1.54-1.76-1.62-4.67-.24-9.65-.1-14.36-.17Z"/>
          <path class="cls-38" d="M836.27,465.74l-.75,1.03c1.77.14,3.55.07,5.32.1,2.51.04,5.22-.02,7.7.12,1.48.09,2.65.66,2.79,2.29.18,2.12-.15,4.62-.04,6.78-.06,3.15.31,6.52.14,9.65-.05.83-.21,1.34-.72,1.99-.23.3-.53.47-.69.79-10.69,0-21.39-.28-32.09-.36l-.49-.17c1.17-1.33,2.29-2.7,3.44-4.06,1.58-1.86,3.15-3.72,4.73-5.59.3-.36,2.42-2.66,2.41-2.86.95.01,1.94.09,2.89.07.25,0,.92,0,1.02-.17.11-.19,0-1.24,0-1.55,0-.49.15-1.95-.06-2.27-.09-.13-.3-.21-.4-.32-.03-.04-.04-.14-.07-.17l.55-.03,3.39-4.05c.04-.17,0-.11-.11-.13-.8-.17-1.8.06-2.63-.13l.66-.95c.99.01,2.02-.02,3.02,0ZM849.44,473.95s.23.04.25.02c.05-.04.03-.72-.02-.76-.75.23-.18-.59-.55-.89-.28-.22-.41.15-.67.03-.14-.06-.12-.65-.77-.48l-.09.66c-.2-.24-.03-.49-.16-.8-.2-.5-.81-.64-1.29-.49-.13.16.61.61.62.69.03.24-.3.57-.54.45-.22-.12-.35-.45-.64-.43-.12.41.15,1.1.57,1.22-.01.05,0,.12-.01.17-.04.13-.1.69-.06.75.02.02.43.01.52.3.06.2-.22.36.04.58.24.21.51-.02.73.07.17.08.06.41.3.43.55.06.47-.21.69-.61.02.02.12,0,.17.01.3.28.49.68,1.02.42.49-.24.15-.77-.13-1.02.02-.07,0-.31.03-.33ZM837.5,473.7c.34.38.82.48,1.31.46.19,0,.42-.15.58-.1.43.14.81,1.2,1.34,1.09.92-.19-.87-1.45-.89-1.62,0-.06.17-.3.2-.48.24-1.23-.77-2.25-1.98-1.79-.95.36-1.24,1.68-.56,2.43ZM851.16,477.44c.07-.71-1.04-.56-.81.1.11.32.59.22.59.51,0,.1-.06.27-.15.28-.15.02-.24-.46-.44-.29-.29.25.72.85.82.11.08-.63-.67-.34-.58-.93.18.12.34.23.57.21ZM848.44,476.97s-.09,1.11-.11,1.29c0,.07.09.29.23.23l.06-.75c.21.05.32.76.4.79.35.11.17-.25.24-.32.14-.13.18.24.35.29.68.16.58-.29.61-.79-.82-.11-.29.21-.28.28.05.34-.07.29-.35.25.04-.16.04-.97.08-1,.14-.12.37.36.57.21.31-.23-1.05-1.08-.87.43-.29.05-.11-.37-.12-.56,0-.15.04-.27-.1-.38-.27,0-.11.58-.19.74-.17-.06-.24-.95-.53-.71ZM846.93,476.93c-.31,0-.6.02-.92,0-.18,0-.55-.09-.67-.02-.26.15-.02,1.25-.12,1.55l.75.06.02-.25-.5-.04c-.09-.73.42-.13.39-.64l-.42-.03.03-.42c.18.1.41-.04.51-.04.14,0,.28.03.42.03-.04.18-.1,1.31.02,1.34.14.04.21.06.22-.11.02-.32-.11-.85,0-1.17.04-.1.23,0,.26-.02.1.03.41-.02.41.08.01.16-.06,1.16-.02,1.21.07,0,.23.03.25.02.07-.06-.07-1.05.02-1.29.04-.11.23.03.26-.07.05-.14.06-.21-.11-.22-.22-.02-.54.02-.8.02ZM847.97,478.52c.43.01.21-.38.22-.61,0-.19.18-1.01-.13-.97-.14.02-.11.16-.11.24-.02.44,0,.9.02,1.34ZM845.06,477.05c-.16-.18-.61-.21-.72.06-.27.7.5.55.51.86,0,.11-.05.24-.16.28-.2.07-.08-.21-.11-.25-.05-.04-.24-.02-.32-.04-.09.45.65.64.8.26.26-.66-.49-.66-.51-.79,0-.05.02-.27.03-.28.19-.17.37.46.56.3.04-.03-.01-.34-.07-.4ZM839.85,478.45c.08,0,.31.04.33.03.04-.03.03-.62.06-.75.19.12.2.62.35.74.32.24.2-.32.2-.41.01-.21.2-1.18-.12-1.14-.23.03-.02.59-.11.75-.28-.24-.11-.83-.61-.72-.06.04.16,1.22-.12,1.42,0-.19-.27-1.43-.34-1.45-.05-.02-.19-.05-.21.04-.09.4-.15.91-.36,1.26-.06-.52-.43.04-.47.05-.33.06-.11-.9-.12-1.1.22-.14.37.47.56.3.11-.1-.13-.46-.27-.51-.4-.14-.56.28-.59.28-.11,0-.56-.58-.87-.18-.44.57.51.81.53.87.05.27-.06.34-.31.26-.06-.02-.04-.27-.29-.19-.1.55.76.67.84.11s-.46-.48-.53-.6c-.09-.16,0-.5.29-.21.12.12-.04.23.38.1-.26.63.22,1.59.85.91.25.49.27-.08.36-.13.38-.2.35.32.38.35.05.05.16-.07.17-.07ZM831.77,476.78l-.75-.06c-.13.38.19.19.23.32.09.34-.02.93-.03,1.29l.25.02c.12-.2-.02-1.29.03-1.34.05-.05.33.16.27-.23ZM830.26,476.74c-.1-.09-.23.07-.26.19-.05.18-.06,1.66.22,1.4l.1-.75c.19.29.1.81.57.72-.11-.25.05-1.41-.04-1.51-.02-.02-.18,0-.25-.02l-.05.58c-.2-.03-.26-.58-.29-.61ZM829.37,478.34c.09-.23-.12-.46-.12-.64,0-.26.34-.43.1-.78-.17-.25-.52-.24-.77-.14l-.05,1.49.25.02.06-.67c.32.13.15.67.53.71ZM829.84,476.79l-.25-.02-.04,1.51.25.02.04-1.51ZM828.42,477.58c.04-.05.06-.43.05-.53-.05-.41-.48-.33-.81-.36l-.05,1.59.25.02c-.16-.77.47-.61.55-.72ZM844.12,483.66c-.22.35-.11,1.21.02,1.57.05.14.87,1.22,1.01,1.32.48.36,1.67.28,2.26.4.17.04.3.19.49.21.16.02.61-.12.77-.2.23-.11,1.29-1.01,1.52-1.23.58-.57.42-1.23.46-1.92.04-.65.23-.71-.13-1.44-.2-.39-.92-1.41-1.27-1.63-.42-.26-1.52-.54-2.02-.5-.26.02-1.17.18-1.43.24s-.84.43-.99.66c-.19.28-.48.78-.55,1.09-.03.13-.12.34.02.44-.09.24-.17.73-.17.99ZM838.65,480.55c-2.13.12-3.51,2.6-2.43,4.5.7,1.24,2.14,1.92,3.52,1.53,3.53-.99,2.85-6.25-1.09-6.04Z"/>
          <path class="cls-38" d="M818.35,466.54c.02.52-.46.73-.68,1.12-.13,0-.24.06-.26.06-.4,0-1.59-.09-1.82.1-.1.08-.13.23-.14.24-.09.07-.08.06-.18.15,0,0-.12-.03-.17.04-.09.1-.35,2.32-.38,2.68,0,.06,0,.11-.01.17l-1.08,1.23-.2.09c.03-.49.1-.97.12-1.46,0-.16.11-.33-.14-.3.04-.73.04-1.45.09-2.17,0-.19-.14-.31-.26-.44h-.12c-.02.07-.05.17-.1.23-.26.31-1.11,1.04-1.2,1.37-.12.46-.3,2.74-.27,3.25.01.2.1.32.22.47l-.26.06c-.18-.15-.61-.15-.87-.16-.73-.03-1.51.07-2.24,0-.09.02-.84.65-.86.73-.07.19.61.96.79,1.01l2.72.05c-.65.86-1.39,1.87-2.15,2.63-.27.27-.56.69-.97.64.02-.03,0-.12.01-.17.08-.25.03-.11.02-.25,0-.15-.06-.29-.05-.46.02-.47.26-1.98.17-2.28-.02-.06-.81-.85-.87-.85-.18-.01-.55.43-.71.53l-.43,4.86c.23.39.37,0,.54-.15.2-.17.51-.37.67-.53v.17s-.04.14-.11.2c-.16.16-1.09.81-.5.92v.08c-.08,0-.19-.05-.24,0-.04.03-.42.71-.53.84-.44.5-.97,1.04-1.44,1.55-.13.14-.09.39-.45.34-.01,0-.09-.09-.19-.1-.44-.03-.88-.15-1.12.33-.09.19-.09,1.21-.09,1.5,0,.05-.01.11-.01.17-.94.86-1.82,1.87-2.58,2.89-.89-.02-1.76.21-1.84-1.04-.05-.87.06-1.87.05-2.76-.06-5.44-.09-10.88-.09-16.32.42-.8,1.18-1.4,2.1-1.5,6.04.12,12.09.13,18.13.22ZM811.81,469.15c.14-.12,1.05-1.05,1.1-1.13.08-.15.09-.24-.07-.33-1.71-.06-3.44-.14-5.13-.05-.07.03-.25.18-.27.24-.03.11,1.09,1.43,1.26,1.47.82-.05,1.68.05,2.5.03.32,0,.4-.03.62-.23Z"/>
          <path class="cls-23" d="M818.6,466.56c2.64.04,5.27.1,7.91.14.85.01,1.71-.08,2.55.04l-1.57,1.85c-2.08,2.33-3.97,5.01-6.11,7.32-.11.12-.21.23-.39.22.02-.29.12-.78.07-1.03-.03-.13-.56-.68-.64-.68-.06,0-.96.77-.99.83-.11.2-.3,2.68-.3,3.08,0,.16-.04.21.05.38.1.19.81,1.08.99,1.29l-.18.15c-.3-.42-.71-.85-1.03-1.26l-.2-.1c-.71.19-2.26-.19-2.85.06-.08.03-1.11,1.13-1.15,1.21-.3.52.83.5,1.13.51.42.02.97-.06,1.39-.05-.55.89-1.35,1.69-2.03,2.49-.46.54-.88,1.09-1.32,1.64l-.72.57c0-.11.05-.21-.02-.33-.01-.02-.32-.39-.34-.41-.19-.14-.74-.04-.82-.12-.05-.05-.07-.8-.03-.83.23.1.53-.04.71-.03.08,0-.02.62.43.46.14-.76-.45-1.01-1.13-.83-.44.12-.58.87-.49,1.23.04.16.25.11.32.22.05.07.03.26.06.28.18.16.94-.49.88.49-.02.25-.1.35-.12.49-.14-.04-.6,0-.66-.06-.09-.09.11-.55-.39-.44-.18.81.32.94,1.02.84-.04.37-.35.34-.49.47-.16.13-.25.4-.39.55-.25.28-.62.44-.69.87-3.68-.04-7.37-.06-11.06-.15.77-1.02,1.64-2.03,2.58-2.89,0,.11.03.56.05.62,0,.03.32.41.35.42.1.04.7.08.8.05.03,0,.45-.35.46-.37.09-.11.03-.57-.04-.59-.48-.17-.35.39-.42.46-.04.04-.71.07-.75.03.1-.37,0-.74,0-1.09,0-.39.1-.77.01-1.17l.75.06s.04.4.05.42c.03.04.32.01.41.04.01-.24.1-.67-.29-.61.02-.03,0-.12.01-.17.36.05.31-.19.45-.34.47-.51,1-1.05,1.44-1.55.11-.13.49-.81.53-.84.05-.04.16,0,.24,0,1.69,0,3.38.03,5.06.08.22-.03.37-.16.29-.39-.05-.15-.96-1.38-1.08-1.42h-2.99c-.09,0-.12.16-.16.23-.09.04-.48.25-.53.29v-.17s.05-.13.11-.2c.15-.15.44-.33.55-.5.41.05.7-.36.97-.64.76-.76,1.5-1.77,2.15-2.63.23-.02,1.01-.65,1.06-.81.04-.11,0-.16-.05-.24-.02-.03-.5-.55-.55-.58l.26-.06c.09.12.34.35.47.46.06.05.02.2.26.18.62-.05.68-.75.75-1.19.1-.71.14-1.45.18-2.17.26-.03.15.14.14.3-.02.49-.09.97-.12,1.46l.2-.09,1.08-1.23c-.02.3.03.53.02.8-.01.3-.19,1.56-.12,1.69.02.04.55.49.64.48.06,0,.88-.69.91-.75.06-1.08.39-2.48.34-3.54-.01-.23-.06-.35-.31-.4,0-.02,0-.05,0-.08.01-.06.03-.2.02-.25h.08c.11.21.25.45.5.47.89-.1,1.91.06,2.77-.03.09,0,.11-.02.17-.07.07-.05,1.12-1.22,1.15-1.31.04-.12-.02-.27-.13-.33-.12-.07-1.36.01-1.63,0-.48-.02-.99-.12-1.46-.12.22-.39.69-.6.68-1.12.08,0,.17.02.25.02ZM818.94,473.4c-.82-.03-1.65-.02-2.46.02-.23.07-.98.77-.94.96.02.12.52.66.65.7l2.99.06c.19-.16.92-.75.88-.94,0-.06-.54-.7-.6-.74-.19-.11-.33-.06-.51-.06ZM811.26,483.48c.03-.22.07-.37-.18-.44-.12-.03-1.31,0-1.35.06-.13.95,0,1.93-.11,2.89l.12.21c.29-.13,1.37.15,1.46-.08.19-.47-.93-.33-1.15-.3.04-.15.04-.97.08-1,.03-.03.62.07.75.06l.03-.42c-.14-.04-.8-.03-.83-.07-.03-.03.11-.71-.01-.88l1.18-.03ZM809.2,486.17l.07-2.89c-.36-.63-.44.11-.46.47-.03.78.09,1.61-.02,2.38l.42.03ZM808.29,484.55c.16-.22.18-.98.04-1.18-.36-.53-1.02-.19-1.56-.34,0,.38-.12,2.97,0,3.07.09.07.23.05.34.06l.03-1.34c.49.05.84.16,1.16-.27ZM806.02,483.28c-.06-.05-.06-.19-.14-.23-.04-.01-.75,0-.81,0-.05,0-.32.38-.42.45l.04,2.32c.29.25.8.38,1.18.32.05,0,.26-.34.43-.36v-2.32c-.03-.14-.2-.12-.28-.19Z"/>
          <path class="cls-38" d="M829.91,465.64l-.75,1.03,3.26.1s-.04.18-.12.27c-.86,1.02-1.8,1.98-2.61,3.05-.09.12-.19.21-.18.38-.1,0-.2.06-.26.06-.33,0-1.15-.2-1.35,0-.15.16-.03,1.26-.04,1.56,0,.08-.02.17-.02.25l-13.61,15.74c-1.06-.01-2.13,0-3.19,0,.08-.43.44-.6.69-.87.14-.15.23-.41.39-.55.14-.12.46-.1.49-.47.03,0,.06.01.08,0,.03,0,.06.01.08,0,.04-.02.06-.06.09-.08.36-.21.29-.33.31-.73,0-.06.01-.11.01-.17l.72-.57c.45-.55.87-1.1,1.32-1.64.68-.8,1.49-1.59,2.03-2.49.06,0,.11.01.17.01.65,0,1.34.08,1.96.08.14,0,.69-.03.73-.15,0-.1-.08-.22-.14-.3l.18-.15c.08.09.17.31.27.27.13-.09.2-.21.24-.36.21-.85.23-2.51.29-3.45,0-.11.02-.22.03-.33.18,0,.28-.11.39-.22,2.14-2.31,4.03-4.99,6.11-7.32l1.57-1.85c-.85-.13-1.7-.03-2.55-.04-2.64-.04-5.27-.11-7.91-.14l.75-1.03c3.52.04,7.04.06,10.56.11Z"/>
          <path class="cls-36" d="M836.27,465.74c4.71.07,9.69-.08,14.36.17,1.46.08,1.71.11,1.76,1.62.22,6.7-.11,13.43.1,20.13-.25,1.25-1.55.84-2.49.84.16-.32.46-.49.69-.79.51-.66.67-1.16.72-1.99.17-3.13-.19-6.5-.14-9.65-.1-2.16.22-4.66.04-6.78-.14-1.64-1.31-2.21-2.79-2.29-2.48-.15-5.19-.08-7.7-.12-1.77-.03-3.55.04-5.32-.1l.75-1.03Z"/>
          <path class="cls-23" d="M827.85,472.35c0,.89-.05,1.81.03,2.69.02.2.13.39.13.43,0,.2-2.11,2.51-2.41,2.86-1.58,1.87-3.16,3.73-4.73,5.59-1.15,1.35-2.27,2.73-3.44,4.06l.49.17c-1.22.04-2.46-.03-3.69-.05l13.61-15.74Z"/>
          <path class="cls-36" d="M819.35,465.53l-.75,1.03c-.08,0-.17-.02-.25-.02-6.04-.09-12.09-.1-18.13-.22-.92.1-1.68.69-2.1,1.5,0-.94-.38-2.16.77-2.52,6.82.07,13.64.15,20.46.23Z"/>
          <path class="cls-36" d="M833.26,465.75l-.66.95s-.15.04-.17.07l-3.26-.1.75-1.03c1.11.01,2.24.09,3.35.11Z"/>
          <path class="cls-23" d="M832.59,466.7c.83.19,1.83-.04,2.63.13.11.02.15-.03.11.13l-3.39,4.05-.55.03c-.14-.14-.43-.5-.59-.55-.34-.1-.91-.02-1.3-.02,0-.17.09-.26.18-.38.81-1.07,1.75-2.03,2.61-3.05.08-.09.09-.23.12-.27.02-.03.13-.04.17-.07Z"/>
          <path class="cls-28" d="M844.12,483.66c0-.26.08-.75.17-.99,1.28-3.47,6.62-2.09,5.99,1.54s-6.1,3.16-6.16-.55ZM849.69,484.2c.61-2.64-2.96-4.23-4.52-1.99-1.68,2.43,1.34,5.28,3.6,3.51.22-.17,1.08-1.25.91-1.44-.09-.1-.54.12-.63-.05v-1.35c.58.26-.29,1.22.63,1.31Z"/>
          <path class="cls-19" d="M838.65,480.55c3.94-.21,4.62,5.05,1.09,6.04-1.39.39-2.82-.29-3.52-1.53-1.08-1.91.3-4.39,2.43-4.5ZM838.77,481.06c-.93.06-2.01.9-2.27,1.8-.75,2.6,2.59,4.46,4.38,2.42,1.53-1.75.16-4.36-2.11-4.22Z"/>
          <path class="cls-23" d="M844.28,482.67c-.15-.1-.05-.31-.02-.44.07-.31.36-.8.55-1.09.15-.23.73-.6.99-.66s1.17-.21,1.43-.24c.5-.04,1.59.24,2.02.5.36.22,1.07,1.24,1.27,1.63.36.73.17.79.13,1.44-.04.69.12,1.35-.46,1.92-.22.22-1.28,1.11-1.52,1.23-.15.07-.61.22-.77.2-.2-.02-.32-.18-.49-.21-.6-.12-1.78-.05-2.26-.4-.13-.1-.96-1.18-1.01-1.32-.13-.37-.24-1.23-.02-1.57.06,3.7,5.51,4.26,6.16.55s-4.71-5.01-5.99-1.54Z"/>
          <path class="cls-37" d="M846.15,473.18c-.42-.12-.69-.81-.57-1.22.29-.02.42.31.64.43.24.13.57-.21.54-.45-.01-.08-.75-.53-.62-.69.48-.15,1.09,0,1.29.49.12.31-.04.56.16.8l.09-.66c.65-.17.62.41.77.48.26.12.39-.25.67-.03.37.3-.19,1.12.55.89.05.04.07.71.02.76-.02.02-.23-.04-.25-.02-.62-.06-.58-.7-.98-.99-.31-.23-1.08-.56-.5.11.39.45,1.03.84,1.45,1.21.28.25.63.78.13,1.02-.52.26-.72-.15-1.02-.42-.1-.09-.03-.1-.24-.19-.2-.43-1.08-1.34-1.56-1.47-.17-.04-.42,0-.58-.05ZM849.1,474.51c-.23.05-.24.61.2.51.31-.07.09-.57-.2-.51Z"/>
          <path class="cls-37" d="M846.8,473.4c.12.35.12.64.43.91.35.3.67.22,1.05.38.02.04-.04.08.07.17-.21.4-.14.67-.69.61-.25-.03-.13-.36-.3-.43-.22-.1-.49.13-.73-.07-.26-.22.02-.38-.04-.58-.08-.29-.5-.28-.52-.3-.05-.06.02-.62.06-.75l.67.05Z"/>
          <path class="cls-37" d="M837.5,473.7c-.68-.75-.39-2.06.56-2.43,1.21-.46,2.22.56,1.98,1.79-.03.17-.21.41-.2.48.03.17,1.81,1.42.89,1.62-.53.11-.91-.95-1.34-1.09-.16-.05-.39.09-.58.1-.49.02-.97-.09-1.31-.46ZM839.34,471.98c-.91-1.01-2.46.62-1.35,1.49.99.78,2.12-.64,1.35-1.49Z"/>
          <path class="cls-37" d="M828.02,475.46s-.11-.23-.13-.43c.08.02.18,0,.25.02.06.02.16.15.28.12h3.15s.1-3.27.1-3.27c-.14-.07-.34.05-.42.05-.2-.01-.23-.09-.33-.11,0-.08.03-.18.02-.25l.42.03-.06-.34s.13-.06.17-.07c.09.11.31.19.4.32.21.32.07,1.78.06,2.27,0,.31.11,1.37,0,1.55-.11.17-.77.16-1.02.17-.95.02-1.93-.05-2.89-.07Z"/>
          <path class="cls-26" d="M848.44,476.97c.29-.24.35.65.53.71.08-.15-.09-.74.19-.74.14.11.1.23.1.38,0,.19-.18.61.12.56-.18-1.51,1.19-.66.87-.43-.2.15-.43-.33-.57-.21-.04.03-.04.84-.08,1,.29.04.4.09.35-.25-.01-.07-.54-.4.28-.28-.03.51.07.96-.61.79-.18-.04-.22-.42-.35-.29-.07.06.12.43-.24.32-.08-.03-.19-.73-.4-.79l-.06.75c-.15.06-.24-.16-.23-.23.02-.18.06-1.25.11-1.29Z"/>
          <path class="cls-10" d="M838.94,478.29c-.63.68-1.11-.28-.85-.91-.42.12-.26.02-.38-.1-.28-.29-.38.04-.29.21.07.12.61.04.53.6s-.93.44-.84-.11c.25-.08.23.17.29.19.25.08.36,0,.31-.26-.01-.06-.96-.31-.53-.87.31-.4.76.18.87.18.03,0,.19-.42.59-.28.14.05.38.41.27.51-.19.17-.34-.44-.56-.3,0,.2-.21,1.16.12,1.1.03,0,.41-.57.47-.05-.01.02,0,.07,0,.08Z"/>
          <path class="cls-3" d="M831.4,471.05s.04.14.07.17c-.05.01-.14.08-.17.07-.19-.04-.22-.19-.4-.2-.09.2.02.36.04.51.01.07-.03.17-.02.25-.08-.02-.31,0-.33-.03-.03-.04.02-.78,0-.92-.44-.02-.89-.1-1.33-.11l.02-.25c.06,0,.16-.06.26-.06.39,0,.95-.07,1.3.02.16.04.45.4.59.55Z"/>
          <path class="cls-6" d="M830.26,476.74s.08.58.29.61l.05-.58c.07.02.23,0,.25.02.09.11-.06,1.27.04,1.51-.47.09-.38-.43-.57-.72l-.1.75c-.28.26-.27-1.22-.22-1.4.03-.12.17-.28.26-.19Z"/>
          <path class="cls-6" d="M839.85,478.36c.28-.2.06-1.37.12-1.42.5-.11.33.48.61.72.09-.16-.13-.72.11-.75.32-.04.13.93.12,1.14,0,.09.11.65-.2.41-.16-.12-.16-.63-.35-.74-.04.13-.03.72-.06.75-.02.02-.25-.03-.33-.03v-.08Z"/>
          <path class="cls-6" d="M829.37,478.34c-.37-.04-.21-.59-.53-.71l-.06.67-.25-.02.05-1.49c.25-.1.6-.11.77.14.24.35-.1.52-.1.78,0,.18.21.41.12.64ZM829.14,476.99c-.07-.05-.22-.02-.32-.04l-.04.5c.3.13.56-.32.36-.46Z"/>
          <path class="cls-26" d="M838.94,478.2c.21-.35.26-.86.36-1.26.02-.09.16-.06.21-.04.07.03.35,1.26.34,1.45v.08s-.13.12-.18.07c-.03-.04,0-.55-.38-.35-.09.05-.11.61-.36.13.01-.02,0-.06,0-.08Z"/>
          <path class="cls-26" d="M828.42,477.58c-.08.11-.71-.04-.55.72l-.25-.02.05-1.59c.32.04.76-.05.81.36.01.1-.01.48-.05.53ZM828.23,476.99l-.33-.03c-.2.73.35.7.33.03Z"/>
          <path class="cls-26" d="M845.06,477.05c.06.07.11.37.07.4-.19.17-.38-.47-.56-.3-.01,0-.03.23-.03.28.02.13.77.13.51.79-.15.39-.89.19-.8-.26.09.02.28,0,.32.04.03.03-.09.32.11.25.11-.04.16-.17.16-.28,0-.32-.78-.17-.51-.86.11-.27.57-.24.72-.06Z"/>
          <path class="cls-10" d="M846.01,476.94v.17c-.12,0-.34.14-.52.04l-.03.42.42.03c.03.51-.48-.09-.39.64l.5.04-.02.25-.75-.06c.11-.3-.14-1.4.12-1.55.13-.07.5.01.67.02Z"/>
          <path class="cls-26" d="M851.16,477.44c-.23.02-.39-.09-.57-.21-.08.59.66.3.58.93-.09.74-1.11.14-.82-.11.2-.17.29.31.44.29.1-.01.16-.18.15-.28,0-.29-.48-.19-.59-.51-.23-.66.88-.81.81-.1Z"/>
          <path class="cls-20" d="M849.44,473.95s0,.26-.03.33c-.42-.38-1.06-.76-1.45-1.21-.58-.67.19-.34.5-.11.4.29.36.93.98.99Z"/>
          <path class="cls-10" d="M846.93,476.93c.26,0,.58-.04.8-.02.17.01.15.08.11.22-.03.09-.22-.04-.26.07-.09.25.05,1.24-.02,1.29-.02.01-.18-.03-.25-.02-.04-.05.03-1.05.02-1.21,0-.1-.32-.05-.41-.08.02-.01,0-.19.02-.25Z"/>
          <path class="cls-10" d="M831.77,476.78c.06.39-.21.18-.27.23-.05.04.09,1.13-.03,1.34l-.25-.02c0-.36.11-.95.03-1.29-.03-.14-.36.06-.23-.32l.75.06Z"/>
          <path class="cls-6" d="M846.93,476.93c-.02.06,0,.24-.02.25-.03.02-.22-.08-.26.02-.11.32.02.85,0,1.17-.01.17-.08.15-.22.11-.12-.04-.05-1.16-.02-1.34-.14,0-.28-.04-.42-.03v-.17c.33,0,.62,0,.94,0Z"/>
          <polygon class="cls-26" points="829.84 476.79 829.8 478.29 829.55 478.27 829.59 476.77 829.84 476.79"/>
          <path class="cls-10" d="M847.97,478.52c-.02-.44-.04-.9-.02-1.34,0-.08-.03-.22.11-.24.31-.04.14.78.13.97-.01.23.21.62-.22.61Z"/>
          <path class="cls-5" d="M846.73,473.22c.02.06.05.11.07.17l-.67-.05s0-.11.01-.17c.17.05.41,0,.58.05Z"/>
          <path class="cls-20" d="M848.52,474.88s-.14,0-.17-.01c-.11-.09-.05-.13-.07-.17.21.09.14.1.24.19Z"/>
          <path class="cls-20" d="M848.29,474.69c-.38-.16-.7-.08-1.05-.38-.31-.27-.32-.56-.43-.91-.02-.06-.05-.11-.07-.17.48.12,1.36,1.04,1.56,1.47Z"/>
          <path class="cls-37" d="M811.81,469.15c-.22.2-.3.22-.62.23-.82.03-1.67-.08-2.5-.03-.17-.05-1.29-1.37-1.26-1.47.01-.06.2-.21.27-.24,1.7-.09,3.43,0,5.13.05.16.08.16.18.07.33-.05.08-.96,1.01-1.1,1.13Z"/>
          <path class="cls-37" d="M807.26,479.05c-.16.16-.48.36-.67.53-.17.15-.31.54-.54.15l.43-4.86c.16-.11.54-.55.71-.53.06,0,.85.79.87.85.1.3-.15,1.81-.17,2.28,0,.18.04.31.05.46l-.02.25s0,.14-.01.17c-.1.17-.4.35-.55.5-.07.07-.08.18-.1.2Z"/>
          <path class="cls-33" d="M813.49,468.49c-.06.72-.06,1.45-.09,2.17s-.08,1.46-.18,2.17c-.44.09-.55.92-1,1.01-.13-.11-.38-.34-.47-.46-.12-.16-.21-.27-.22-.47-.03-.51.15-2.79.27-3.25.09-.33.94-1.06,1.2-1.37l.49.21Z"/>
          <path class="cls-26" d="M806.65,480.42v-.08c.32-.55.81-.86,1.13-1.42.04-.07.07-.23.16-.24h2.99c.11.04,1.02,1.28,1.08,1.43.08.23-.07.36-.29.39-1.69-.04-3.38-.07-5.06-.08Z"/>
          <path class="cls-37" d="M811.5,473.44s.53.55.55.58c.05.09.09.13.05.24-.06.16-.83.79-1.06.81l-2.72-.05c-.18-.05-.86-.83-.79-1.01.03-.07.78-.71.86-.73.73.06,1.52-.03,2.24,0,.26.01.69,0,.87.16Z"/>
          <path class="cls-10" d="M816.3,469.05c.48-.21.91-.84,1.12-1.33.02,0,.12-.06.26-.06.48,0,.98.1,1.46.12.27.01,1.51-.07,1.63,0,.11.06.18.21.13.33-.03.08-1.08,1.26-1.15,1.31-.07.05-.09.06-.17.07-.86.09-1.88-.07-2.77.03-.25-.02-.39-.27-.5-.46Z"/>
          <path class="cls-10" d="M816.19,469.38c.25.04.3.17.31.4.05,1.05-.28,2.46-.34,3.54-.04.06-.85.75-.91.75-.09.01-.63-.44-.64-.48-.07-.14.11-1.4.12-1.69.01-.27-.05-.5-.02-.8,0-.06,0-.11.01-.17.22,0,.39-.27.53-.42.21-.23.85-.89.94-1.14Z"/>
          <path class="cls-33" d="M815.28,468.22c.14.29.41.48.61.72.09.11.14.29.31.36,0,.03,0,.06,0,.08-.09.24-.72.91-.94,1.14-.14.15-.32.41-.53.42.03-.36.3-2.58.38-2.68.06-.07.17-.03.17-.04Z"/>
          <path class="cls-37" d="M817.41,467.72c-.21.49-.63,1.12-1.12,1.33h-.08s-.07-.07-.08-.1c-.13-.33-.41-.66-.68-.89.01-.01.04-.16.14-.24.23-.19,1.41-.1,1.82-.1Z"/>
          <path class="cls-3" d="M803.04,484.57c0,.35.09.72,0,1.09.04.04.71,0,.75-.03.07-.08-.06-.64.42-.46.07.02.13.48.04.59-.02.02-.44.36-.46.37-.1.03-.7-.02-.8-.05-.03,0-.34-.39-.35-.42-.02-.06-.04-.51-.05-.62,0-.05.02-.11.01-.17.29.09.15-.39.44-.3Z"/>
          <path class="cls-37" d="M803.99,483.14s0,.14-.01.17c-.03.05-.17.12-.18.15l-.75-.06c.09.4-.01.78-.01,1.17-.29-.09-.15.39-.44.3,0-.29,0-1.3.09-1.5.23-.48.68-.37,1.12-.33.11,0,.18.1.19.1Z"/>
          <path class="cls-6" d="M807.78,478.92c-.32.56-.81.87-1.12,1.42-.59-.12.33-.77.5-.92.07-.06.08-.18.1-.2.05-.04.43-.26.53-.29Z"/>
          <path class="cls-23" d="M815.46,468.06c.27.23.55.56.68.89l-.25-.02c-.2-.24-.47-.43-.61-.72.1-.09.09-.08.18-.15Z"/>
          <path class="cls-6" d="M813.49,468.49l-.49-.21c.05-.07.09-.16.1-.24h.12c.12.14.27.26.26.45Z"/>
          <path class="cls-23" d="M807.92,478.18l.02-.25c0,.14.06,0-.02.25Z"/>
          <path class="cls-26" d="M818.94,473.4c.19,0,.32-.05.51.06.06.03.59.68.6.74.03.19-.69.79-.88.94l-2.99-.06c-.13-.04-.63-.58-.65-.7-.03-.19.71-.89.94-.96.82-.04,1.65-.04,2.46-.02Z"/>
          <path class="cls-26" d="M818.77,478.82c-.29.66-.99,1.09-1.32,1.74-.06,0-.11-.01-.17-.01-.42,0-.97.07-1.39.05-.31-.01-1.43.01-1.13-.51.04-.07,1.07-1.17,1.15-1.21.6-.25,2.15.13,2.85-.06Z"/>
          <path class="cls-10" d="M821,476.15c0,.11-.02.22-.03.33l-1.83,1.86c0-.39.18-2.88.3-3.08.03-.06.92-.83.99-.83.08,0,.61.56.64.68.05.25-.05.73-.07,1.03Z"/>
          <path class="cls-33" d="M820.97,476.48c-.06.94-.08,2.6-.29,3.45-.04.15-.11.27-.24.36-.1.03-.19-.18-.27-.27-.18-.21-.89-1.1-.99-1.29-.09-.17-.05-.22-.05-.38l1.83-1.86Z"/>
          <path class="cls-3" d="M806.02,483.28c.08.07.25.04.28.19v2.32c-.18.02-.39.35-.44.36-.38.06-.89-.07-1.18-.32l-.04-2.32c.1-.06.37-.44.42-.45.06,0,.77-.02.81,0,.09.03.09.18.14.23ZM805.89,483.47s-.78-.12-.83.07l-.02,2.21.84-.02c-.02-.3.09-2.17.02-2.26Z"/>
          <path class="cls-3" d="M811.26,483.48l-1.18.03c.12.17-.02.85.01.88.03.04.69.03.83.07l-.03.42c-.13.01-.72-.09-.75-.06-.04.03-.04.84-.08,1,.22-.03,1.34-.16,1.15.3-.1.24-1.18-.05-1.46.08l-.12-.21c.1-.96-.02-1.94.11-2.89.04-.05,1.23-.09,1.35-.06.24.06.21.22.18.44Z"/>
          <path class="cls-37" d="M820,480.17c.06.08.14.2.14.3-.03.12-.59.15-.73.15-.62,0-1.32-.07-1.96-.08.33-.65,1.03-1.08,1.32-1.74l.2.1c.31.42.73.85,1.03,1.26Z"/>
          <path class="cls-19" d="M808.29,484.55c-.33.43-.68.32-1.16.27l-.03,1.34c-.11-.01-.25,0-.34-.06-.12-.1,0-2.69,0-3.07.55.15,1.21-.19,1.56.34.14.2.12.96-.04,1.18ZM807.98,483.48s-.8-.02-.83.01c-.05.04-.07.84.02.91.11.08.64.03.82.08v-1Z"/>
          <path class="cls-19" d="M812.78,485.37c.06-.98-.7-.34-.88-.49-.03-.02,0-.22-.06-.28-.07-.1-.27-.06-.32-.22-.1-.36.05-1.11.49-1.23.67-.18,1.27.07,1.13.83-.45.16-.34-.45-.43-.46-.18-.01-.48.12-.71.03-.04.03-.03.78.03.83.08.08.63-.02.82.12.02.02.33.38.34.41.06.12.02.22.02.33,0,.05-.01.11-.01.17l-.42-.03Z"/>
          <path class="cls-19" d="M809.2,486.17l-.42-.03c.12-.78,0-1.61.02-2.38.02-.36.1-1.1.46-.47l-.07,2.89Z"/>
          <path class="cls-3" d="M812.63,486.2c-.71.1-1.21-.03-1.02-.84.5-.11.3.35.39.44.06.06.52.02.66.06-.02.12,0,.24.06.34-.02,0-.06-.01-.08,0Z"/>
          <path class="cls-19" d="M813.22,472.83c-.06.44-.13,1.14-.75,1.19-.24.02-.2-.12-.26-.18.45-.09.56-.92,1-1.01Z"/>
          <path class="cls-6" d="M813.2,485.4c-.03.4.05.51-.31.73l-.09.08s-.06-.01-.08,0c-.05-.1-.08-.22-.06-.34.03-.14.11-.24.12-.49l.42.03Z"/>
          <path class="cls-19" d="M803.98,483.31c.39-.06.3.37.29.61-.1-.02-.38,0-.41-.04-.01-.02-.06-.4-.05-.42,0-.03.15-.1.18-.15Z"/>
          <path class="cls-38" d="M816.14,468.96s.07.06.08.09c0,.05,0,.19-.02.25-.17-.07-.21-.25-.31-.36l.25.02Z"/>
          <path class="cls-28" d="M828.13,475.05c-.07-.02-.17,0-.25-.02-.09-.88-.04-1.8-.03-2.69,0-.08.02-.17.02-.25l.26-.15s.07.1.07.21c-.02.96-.02,1.93-.07,2.89Z"/>
          <path class="cls-6" d="M829.26,470.53l-.02.25c-.31,0-.67.1-1.01,0-.01.39-.09.78-.1,1.17l-.26.15c0-.3-.12-1.4.04-1.56.2-.21,1.02,0,1.35,0Z"/>
          <path class="cls-3" d="M812.8,486.21l.09-.08s-.05.06-.09.08Z"/>
          <path class="cls-7" d="M849.69,484.2c-.92-.09-.05-1.05-.65-1.31v1.35c.1.17.55-.05.64.05.17.18-.7,1.27-.91,1.44-2.25,1.77-5.28-1.08-3.6-3.51,1.56-2.24,5.13-.65,4.52,1.99ZM848.96,482.88c-.9-.3-.76.6-.69,1.24.04.38.38.1.65.18.11-.3-.35-.13-.4-.2.03-.1,0-.36.04-.41s.32.12.25-.15c-.43.02-.34-.06-.3-.44l.42.03.02-.25ZM847.25,484.25l.11-1.29c0-.05-.16-.17-.24-.14l-.13.58c.02-.11-.25-.65-.38-.53l-.03,1.42c.31.09.15-.47.22-.65.25.13.1.61.45.62ZM848.16,483.4c.18-.46-.47-.74-.68-.39-.13.23-.15,1.07.11,1.23.48.29.85-.45.41-.35-.02,0-.17.37-.34.06-.11-.19.03-1.01.28-.82.03.02,0,.32.23.27ZM845.58,482.96c-.67-.74-1.07,1.52-.14,1.3.18-.04.16-.24.17-.4-.23-.1-.19.21-.31.23-.29.04-.18-.73-.13-.88.1-.28.35.18.49.07.04-.04-.04-.27-.08-.32ZM846.5,484.27c.04-.14-.23-1.59-.47-1.38-.16.47-.29.89-.28,1.4.27.09.13-.24.32-.31.28-.1.18.31.44.29Z"/>
          <path class="cls-23" d="M838.77,481.06c2.26-.14,3.63,2.47,2.11,4.22-1.78,2.04-5.13.18-4.38-2.42.26-.9,1.34-1.74,2.27-1.8ZM837.06,482.75c-.26.4-.46.39-.42,1.02.01.25.67,1.18.87,1.35.95.83,2.31.69,3.11-.24.05-.05.42-.62.43-.68.09-.43.13-.83-.06-1.22-.05-.09.13-.13-.15-.18-.1-1.07-1.57-1.44-2.46-1.21-.71.18-.94.61-1.3,1.16Z"/>
          <path class="cls-20" d="M849.1,474.51c.29-.06.51.44.2.51-.44.1-.43-.47-.2-.51Z"/>
          <path class="cls-38" d="M839.34,471.98c.77.85-.36,2.27-1.35,1.49-1.12-.88.43-2.51,1.35-1.49Z"/>
          <path class="cls-23" d="M829.24,470.78c.44,0,.89.09,1.33.11.03.15-.02.89,0,.92.02.02.25,0,.33.03.09.02.12.1.33.11,0,.09-.09.18-.1.24-.22-.1-.53.03-.67.03-.58,0-1.18-.08-1.76-.06l-.02.25c.47.04.94.08,1.42.12.11,0,.16.02.33.03.13,0,.29.04.42.03l-.02.25c-.3-.03-.5.02-.76.02-.23,0-1.37-.08-1.42-.03-.02.02,0,.25-.03.33.03.03.81,0,.84-.01.18-.01.42.05.58.05l-.03.33c-.45,0-.89.05-1.34-.03l-.02.25,2.34.11c-.03.07,0,.24-.03.33l-2.26-.02c-.06.39-.05.35.31.36.09.43-.54.19-.68.29-.07.05.07.31-.2.22.06-.96.05-1.93.07-2.89,0-.11-.07-.2-.07-.21,0-.39.08-.78.1-1.17.34.1.7,0,1.01,0Z"/>
          <path class="cls-38" d="M831.24,471.95c.08,0,.28-.12.42-.05l-.1,3.26h-3.15c-.12.04-.22-.1-.28-.11.27.09.13-.17.2-.22.14-.11.78.14.68-.29.67.03,1.36-.11,2.04-.01.26-.1.15-.3-.09-.33.03-.09,0-.26.03-.33.01-.03.27-.11.19-.32-.4-.09-.79-.02-1.17-.01l.03-.33c.16,0,.97-.02,1.01-.04.36-.2-.01-.29-.23-.31l.02-.25c.34-.03.23-.17.28-.4.02-.07.1-.15.1-.24Z"/>
          <path class="cls-20" d="M831.29,471.29l.06.34-.42-.03c-.02-.15-.13-.31-.04-.51.18,0,.21.16.4.2Z"/>
          <path class="cls-20" d="M829.14,476.99c.2.14-.06.59-.36.46l.04-.5c.1.02.25-.01.32.04Z"/>
          <path class="cls-38" d="M828.23,476.99c.01.68-.53.7-.33-.03l.33.03Z"/>
          <path class="cls-23" d="M805.89,483.47c.07.09-.04,1.96-.02,2.26l-.84.02.02-2.21c.05-.19.81-.1.83-.07Z"/>
          <path class="cls-38" d="M807.98,483.48v1c-.17-.05-.7,0-.81-.08-.09-.07-.07-.86-.02-.91.03-.03.78-.06.83-.01Z"/>
          <path class="cls-26" d="M847.25,484.25c-.35,0-.2-.49-.45-.62-.07.18.09.74-.22.65l.03-1.42c.12-.12.4.42.38.53l.13-.58c.08-.03.24.09.24.14l-.11,1.29Z"/>
          <path class="cls-26" d="M846.5,484.27c-.26.03-.16-.38-.44-.29-.18.07-.05.4-.32.31-.01-.51.12-.93.28-1.4.25-.21.52,1.24.47,1.38Z"/>
          <path class="cls-26" d="M848.16,483.4c-.23.05-.2-.25-.23-.27-.25-.19-.39.63-.28.82.18.31.32-.05.34-.06.44-.11.07.64-.41.35-.25-.16-.24-1-.11-1.23.21-.35.86-.06.68.39Z"/>
          <path class="cls-28" d="M848.96,482.88l-.02.25-.42-.03c-.04.38-.13.46.3.44.06.27-.21.1-.25.15s-.02.31-.04.41c.06.07.52-.1.4.2-.28-.08-.61.2-.65-.18-.07-.64-.21-1.54.69-1.24Z"/>
          <path class="cls-28" d="M845.58,482.96s.12.28.08.32c-.13.11-.39-.35-.49-.07-.05.15-.16.92.13.88.12-.02.08-.33.31-.23,0,.15,0,.35-.17.4-.93.23-.53-2.04.14-1.3Z"/>
          <path class="cls-30" d="M840.33,482.76c-.14.35.22.21.23.32.03.19-.14,1.07-.1,1.12l.25.02c.08-.35-.05-.7,0-1.05.04-.26-.01-.22.27-.19.19.38.15.79.06,1.22-.01.06-.38.62-.43.68-.8.93-2.16,1.07-3.11.24-.2-.18-.86-1.11-.87-1.35-.03-.63.16-.62.42-1.02.06,0,.11,0,.17.01-.66.59.36.8.33,1.07,0,.11-.12.23-.23.19-.04-.01-.18-.44-.35-.28-.28.25.81.88.76.02-.02-.36-.68-.55-.45-.75.15-.13.55.53.51-.04.02.01.06,0,.08,0,.06.02.17,0,.25.02v1.17s.24.02.24.02c-.05-.31-.08-.75,0-1.05.06-.22.3-.12.28-.35.06,0,.11.01.17.01l-.19,1.33c.33.07,0-.31.4-.22.21.05.1.27.31.28.17.02-.24-1.23-.18-1.36.14,0,.27-.06.34-.06l-.03,1.42c.44.1.15-.15.2-.44.41-.23.26.44.3.49,0,0,.24.03.25.02.08-.06-.1-.46-.1-.57,0-.28.26-.56-.03-.86.06,0,.16-.07.26-.06Z"/>
          <path class="cls-30" d="M840.83,482.8c-.15-.03-.35-.04-.5-.04-.1,0-.2.06-.26.06-.19,0-.39-.04-.58-.05-.07,0-.2.06-.34.06-.11,0-.22-.02-.33-.03-.06,0-.11-.01-.17-.01-.33-.02-.86-.21-.77.19-.02-.01-.06,0-.08,0-.23-.1-.19-.18-.57-.21-.06,0-.11,0-.17-.01.36-.54.6-.98,1.3-1.16.89-.22,2.37.14,2.46,1.21Z"/>
          <path class="cls-28" d="M840.83,482.8c.29.05.11.09.15.18-.28-.03-.23-.07-.27.19-.05.35.08.7,0,1.05l-.25-.02c-.05-.05.12-.94.1-1.12-.01-.1-.37.04-.23-.32.15,0,.35.01.5.04Z"/>
          <path class="cls-6" d="M830.97,474.2c.24.03.35.23.09.33-.68-.1-1.37.04-2.04.01-.36-.01-.37.03-.31-.36l2.26.02Z"/>
          <path class="cls-6" d="M830.02,473.53c.39,0,.77-.08,1.17.01.07.21-.18.29-.19.32l-2.34-.11.02-.25c.45.07.89.03,1.34.03Z"/>
          <path class="cls-3" d="M830.46,472.23l-.02.25-.34.06c-.47-.03-.95-.08-1.42-.12l.02-.25c.58-.02,1.18.06,1.76.06Z"/>
          <path class="cls-6" d="M830.83,472.84c.22.02.58.11.23.31-.04.03-.85.04-1.01.04s-.4-.06-.58-.05c.02-.01,0-.15.01-.17.12-.07.67.22.6-.12.26,0,.45-.05.76-.02Z"/>
          <path class="cls-3" d="M830.07,472.87c.07.34-.48.04-.6.12-.02.01,0,.15-.01.17-.03.02-.81.05-.84.01.02-.08,0-.31.03-.33.05-.05,1.19.03,1.42.03Z"/>
          <path class="cls-10" d="M831.13,472.2c-.06.23.06.37-.28.4-.12.01-.28-.03-.42-.03v-.08s.03-.25.03-.25c.14,0,.45-.13.67-.03Z"/>
          <path class="cls-38" d="M830.44,472.48v.08c-.18,0-.23-.02-.34-.03l.34-.06Z"/>
          <path class="cls-28" d="M840.08,482.82c.29.3.03.58.03.86,0,.12.18.51.1.57,0,0-.24-.01-.25-.02-.04-.05.11-.71-.3-.49-.05.29.24.55-.2.44l.03-1.42c.19,0,.39.05.58.05ZM839.69,483.38c.16.18.56-.25.24-.4-.3-.14-.26.37-.24.4Z"/>
          <path class="cls-28" d="M839.15,482.83c-.06.12.35,1.38.18,1.36-.21-.01-.1-.24-.31-.28-.39-.08-.07.3-.4.22l.19-1.33c.11,0,.22.03.33.03Z"/>
          <path class="cls-27" d="M837.8,482.97c.04.57-.36-.08-.51.04-.23.2.42.39.45.75.06.86-1.04.24-.76-.02.18-.16.32.27.35.28.11.04.22-.08.23-.19.02-.27-1-.48-.33-1.07.38.03.34.12.57.21Z"/>
          <path class="cls-27" d="M838.65,482.79c.02.23-.22.13-.28.35-.08.3-.05.74,0,1.05l-.25-.02v-1.17c-.06-.02-.18,0-.24-.02-.09-.4.44-.21.77-.19Z"/>
          <path class="cls-30" d="M839.69,483.38s-.06-.54.24-.4c.32.15-.09.58-.24.4Z"/>
        </g>
        <g>
          <g>
            <path class="cls-37" d="M864.62,435.89l-.04-8.82c-.06-.39-.26-.76-.59-1.05-.3-.26-.74-.46-1.27-.53-.38-.05-.88-.05-1.27-.07-.12,0-.22-.01-.33-.01-4.41-.15-9.21-.07-13.65-.11-.43,0-.88,0-1.33-.01h-.52c-.95,0-1.92,0-2.88-.01-.46,0-.91,0-1.37.01-.95,0-1.92.02-2.88.01-.93-.01-1.87-.02-2.81-.03-1.76,0-3.53-.03-5.29-.05-8.1-.1-16.2-.24-24.3-.32-6.19-.06-12.37-.09-18.54-.05-.55,0-1.45-.03-1.92.07-.87.17-1.56.91-1.61,1.52.4,6.76-.22,13.56.14,20.31.1,1.88,1.24,2.01,3.7,2.1,4.21.14,8.61.14,12.96.14,1.76,0,3.53,0,5.26.02.29-.01.56,0,.84,0h.26c1.52.02,3.07,0,4.6,0,.27,0,.53.01.81.01,1.3.03,2.6.08,3.91.09h.09c5.11.05,10.23.08,15.3.12h.39c7.45.06,14.98.07,22.46.12,2.3.01,4.73.17,7.01.14,1.72-.02,2.98-.61,2.95-1.88l-.07-11.73ZM862.53,448.78c-9.79-.07-19.6-.15-29.39-.24h-.2c-5.09-.04-10.18-.06-15.27-.11h-.23c-.32-.01-.65-.01-.97-.02l-1.22-.03c-.61-.02-1.22-.04-1.82-.04-.2-.01-.39-.01-.59-.01-1.43,0-2.92.02-4.37,0h-.72c-.55,0-1.1,0-1.66,0-1.46-.01-2.92-.01-4.41-.01-4.69.01-9.43.02-13.97-.14-2.13-.08-2.47-.11-2.55-1.62-.32-6.7.16-13.43-.14-20.13.36-1.25,2.24-.85,3.6-.84,5.83,0,11.64.04,17.47.09,7.81.08,15.64.17,23.45.23,1.78.02,3.56.03,5.34.04h.14c1.76-.04,3.56.03,5.34.05h.16c1.46.01,2.97,0,4.44.01h.36c5.21.04,10.37.06,15.58.15h.1c1.26.01,2.5-.21,2.62,1.04.07.87-.09,1.87-.07,2.75.03,2.26.06,4.51.09,6.77.03,3.18.04,6.36.03,9.55,0,.94.55,2.15-1.11,2.52Z"/>
            <path class="cls-38" d="M863.61,436.71c-.03-2.26-.06-4.51-.09-6.77-.01-.88.14-1.88.07-2.75-.12-1.25-1.36-1.03-2.62-1.04h-.1c-5.21-.09-10.37-.11-15.58-.15h-.36c-1.48-.01-2.98,0-4.44-.01h-.16c-1.78-.02-3.57-.09-5.34-.05h-.14c-1.78-.01-3.56-.02-5.34-.04-7.81-.06-15.63-.15-23.45-.23-5.83-.05-11.64-.09-17.47-.09-.23.32-.67.49-1,.78-.74.66-.97,1.17-1.04,2-.25,3.13.28,6.5.2,9.65.14,2.16-.33,4.66-.07,6.78.2,1.63,1.89,2.21,4.04,2.29,3.59.15,7.51.08,11.14.12.39.01.78.01,1.17.01,1.01,0,2.02-.01,3.04,0,.98.01,1.95.03,2.94.08l-1.27,1.04h.72c1.45.02,2.94,0,4.37,0,.2,0,.39,0,.59.01l1.23-1.02,4.04.09h.07l-1.1,1.02c5.09.05,10.18.07,15.27.11l1.1-1.02c.12,0,.22.02.35.02h.01c8.74.08,17.47.09,26.21.22,1.33-.11,2.44-.7,3.04-1.5.01-3.19,0-6.37-.03-9.55ZM841.81,428.8v.04l-.14.08.14-.12ZM855.15,430.93h-.12l.13-.11s0,.08-.01.11ZM858.37,428.23l2.14-1.71c-.67.59-1.37,1.17-2.14,1.71Z"/>
            <path class="cls-36" d="M809.01,447.29l-1.27,1.04c-.55,0-1.1,0-1.66,0-1.46-.01-2.92-.01-4.41-.01-4.69.01-9.43.02-13.97-.14-2.13-.08-2.47-.11-2.55-1.62-.32-6.7.16-13.43-.14-20.13.36-1.25,2.24-.85,3.6-.84-.23.32-.67.49-1,.78-.74.66-.97,1.17-1.04,2-.25,3.13.28,6.5.2,9.65.14,2.16-.33,4.66-.07,6.78.2,1.63,1.89,2.21,4.04,2.29,3.59.15,7.51.08,11.14.12.39.01.78.01,1.17.01,1.01,0,2.02-.01,3.04,0,.98.01,1.95.03,2.94.08Z"/>
            <path class="cls-36" d="M862.53,448.78c-9.79-.07-19.6-.15-29.39-.24h-.2l1.1-1.02c.12,0,.22.02.35.02h.01c8.74.08,17.47.09,26.21.22,1.33-.11,2.44-.7,3.04-1.5,0,.94.55,2.15-1.11,2.52Z"/>
            <path class="cls-36" d="M818.76,447.41l-1.1,1.02h-.23c-.32-.01-.65-.01-.97-.02l-1.22-.03c-.61-.02-1.22-.04-1.82-.04l1.23-1.02,4.04.09h.07Z"/>
          </g>
          <path class="cls-23" d="M818.69,447.25l2.2-1.85c.92-.74,1.82-1.51,2.7-2.3l17.13-14.26.14-.08v-.04l3.37-2.8c5.03.04,10.02.06,15.06.15l-3.19,2.65v.04l-.14.08-17.13,14.26c-.45.39-.88.79-1.33,1.17-.46.38-.91.76-1.37,1.13l-1.05.88-1.15.97-.25.2h-.01c-.13.01-.22-.01-.34-.01-3.69-.04-7.38-.11-11.07-.15-1.19-.01-2.38.09-3.57-.04Z"/>
          <path class="cls-23" d="M802.52,448.25l1.23-1.04,24.98-21.35h.14c1.71-.04,3.44.03,5.16.05h.15l-24.98,21.33-1.19,1.02c-.2-.01-.38-.01-.57-.01-1.38-.01-2.82.02-4.22,0h-.7Z"/>
        </g>
        <g>
          <g>
            <path class="cls-10" d="M790.98,431.6c.48-.21.91-.84,1.12-1.33.02,0,.12-.06.26-.06.48,0,.98.1,1.46.12.27.01,1.51-.07,1.63,0,.11.06.18.21.13.33-.03.08-1.08,1.26-1.15,1.31-.07.05-.09.06-.17.07-.86.09-1.88-.07-2.77.03-.25-.02-.39-.27-.5-.46Z"/>
            <path class="cls-10" d="M790.87,431.93c.25.04.3.17.31.4.05,1.05-.28,2.46-.34,3.54-.04.06-.85.75-.91.75-.09.01-.63-.44-.64-.48-.07-.14.11-1.4.12-1.69.01-.27-.05-.5-.02-.8,0-.06,0-.11.01-.17.22,0,.39-.27.53-.42.21-.23.85-.89.94-1.14Z"/>
            <path class="cls-33" d="M789.96,430.77c.14.29.41.48.61.72.09.11.14.29.31.36,0,.03,0,.06,0,.08-.09.24-.72.91-.94,1.14-.14.15-.32.41-.53.42.03-.36.3-2.58.38-2.68.06-.07.17-.03.17-.04Z"/>
            <path class="cls-37" d="M792.1,430.27c-.21.49-.63,1.12-1.12,1.33h-.08s-.07-.07-.08-.1c-.13-.33-.41-.66-.68-.89.01-.01.04-.16.14-.24.23-.19,1.41-.1,1.82-.1Z"/>
            <path class="cls-23" d="M790.14,430.61c.27.23.55.56.68.89l-.25-.02c-.2-.24-.47-.43-.61-.72.1-.09.09-.08.18-.15Z"/>
            <path class="cls-26" d="M793.63,435.95c.19,0,.32-.05.51.06.06.03.59.68.6.74.03.19-.69.79-.88.94l-2.99-.06c-.13-.04-.63-.58-.65-.7-.03-.19.71-.89.94-.96.82-.04,1.65-.04,2.46-.02Z"/>
            <path class="cls-26" d="M793.45,441.37c-.29.66-.99,1.09-1.32,1.74-.06,0-.11-.01-.17-.01-.42,0-.97.07-1.39.05-.31-.01-1.43.01-1.13-.51.04-.07,1.07-1.17,1.15-1.21.6-.25,2.15.13,2.85-.06Z"/>
            <path class="cls-10" d="M795.68,438.7c0,.11-.02.22-.03.33l-1.83,1.86c0-.39.18-2.88.3-3.08.03-.06.92-.83.99-.83.08,0,.61.56.64.68.05.25-.05.73-.07,1.03Z"/>
            <path class="cls-33" d="M795.66,439.03c-.06.94-.08,2.6-.29,3.45-.04.15-.11.27-.24.36-.1.03-.19-.18-.27-.27-.18-.21-.89-1.1-.99-1.29-.09-.17-.05-.22-.05-.38l1.83-1.86Z"/>
            <path class="cls-37" d="M794.68,442.72c.06.08.14.2.14.3-.03.12-.59.15-.73.15-.62,0-1.32-.07-1.96-.08.33-.65,1.03-1.08,1.32-1.74l.2.1c.31.42.73.85,1.03,1.26Z"/>
            <path class="cls-38" d="M790.82,431.51s.07.06.08.09c0,.05,0,.19-.02.25-.17-.07-.21-.25-.31-.36l.25.02Z"/>
          </g>
          <g>
            <path class="cls-10" d="M798.71,431.6c.48-.21.91-.84,1.12-1.33.02,0,.12-.06.26-.06.48,0,.98.1,1.46.12.27.01,1.51-.07,1.63,0,.11.06.18.21.13.33-.03.08-1.08,1.26-1.15,1.31-.07.05-.09.06-.17.07-.86.09-1.88-.07-2.77.03-.25-.02-.39-.27-.5-.46Z"/>
            <path class="cls-10" d="M798.6,431.93c.25.04.3.17.31.4.05,1.05-.28,2.46-.34,3.54-.04.06-.85.75-.91.75-.09.01-.63-.44-.64-.48-.07-.14.11-1.4.12-1.69.01-.27-.05-.5-.02-.8,0-.06,0-.11.01-.17.22,0,.39-.27.53-.42.21-.23.85-.89.94-1.14Z"/>
            <path class="cls-33" d="M797.69,430.77c.14.29.41.48.61.72.09.11.14.29.31.36,0,.03,0,.06,0,.08-.09.24-.72.91-.94,1.14-.14.15-.32.41-.53.42.03-.36.3-2.58.38-2.68.06-.07.17-.03.17-.04Z"/>
            <path class="cls-37" d="M799.82,430.27c-.21.49-.63,1.12-1.12,1.33h-.08s-.07-.07-.08-.1c-.13-.33-.41-.66-.68-.89.01-.01.04-.16.14-.24.23-.19,1.41-.1,1.82-.1Z"/>
            <path class="cls-23" d="M797.87,430.61c.27.23.55.56.68.89l-.25-.02c-.2-.24-.47-.43-.61-.72.1-.09.09-.08.18-.15Z"/>
            <path class="cls-26" d="M801.35,435.95c.19,0,.32-.05.51.06.06.03.59.68.6.74.03.19-.69.79-.88.94l-2.99-.06c-.13-.04-.63-.58-.65-.7-.03-.19.71-.89.94-.96.82-.04,1.65-.04,2.46-.02Z"/>
            <path class="cls-26" d="M801.18,441.37c-.29.66-.99,1.09-1.32,1.74-.06,0-.11-.01-.17-.01-.42,0-.97.07-1.39.05-.31-.01-1.43.01-1.13-.51.04-.07,1.07-1.17,1.15-1.21.6-.25,2.15.13,2.85-.06Z"/>
            <path class="cls-10" d="M803.41,438.7c0,.11-.02.22-.03.33l-1.83,1.86c0-.39.18-2.88.3-3.08.03-.06.92-.83.99-.83.08,0,.61.56.64.68.05.25-.05.73-.07,1.03Z"/>
            <path class="cls-33" d="M803.38,439.03c-.06.94-.08,2.6-.29,3.45-.04.15-.11.27-.24.36-.1.03-.19-.18-.27-.27-.18-.21-.89-1.1-.99-1.29-.09-.17-.05-.22-.05-.38l1.83-1.86Z"/>
            <path class="cls-37" d="M802.41,442.72c.06.08.14.2.14.3-.03.12-.59.15-.73.15-.62,0-1.32-.07-1.96-.08.33-.65,1.03-1.08,1.32-1.74l.2.1c.31.42.73.85,1.03,1.26Z"/>
            <path class="cls-38" d="M798.55,431.51s.07.06.08.09c0,.05,0,.19-.02.25-.17-.07-.21-.25-.31-.36l.25.02Z"/>
          </g>
          <g>
            <path class="cls-10" d="M806.43,431.6c.48-.21.91-.84,1.12-1.33.02,0,.12-.06.26-.06.48,0,.98.1,1.46.12.27.01,1.51-.07,1.63,0,.11.06.18.21.13.33-.03.08-1.08,1.26-1.15,1.31-.07.05-.09.06-.17.07-.86.09-1.88-.07-2.77.03-.25-.02-.39-.27-.5-.46Z"/>
            <path class="cls-10" d="M806.32,431.93c.25.04.3.17.31.4.05,1.05-.28,2.46-.34,3.54-.04.06-.85.75-.91.75-.09.01-.63-.44-.64-.48-.07-.14.11-1.4.12-1.69.01-.27-.05-.5-.02-.8,0-.06,0-.11.01-.17.22,0,.39-.27.53-.42.21-.23.85-.89.94-1.14Z"/>
            <path class="cls-33" d="M805.41,430.77c.14.29.41.48.61.72.09.11.14.29.31.36,0,.03,0,.06,0,.08-.09.24-.72.91-.94,1.14-.14.15-.32.41-.53.42.03-.36.3-2.58.38-2.68.06-.07.17-.03.17-.04Z"/>
            <path class="cls-37" d="M807.55,430.27c-.21.49-.63,1.12-1.12,1.33h-.08s-.07-.07-.08-.1c-.13-.33-.41-.66-.68-.89.01-.01.04-.16.14-.24.23-.19,1.41-.1,1.82-.1Z"/>
            <path class="cls-23" d="M805.59,430.61c.27.23.55.56.68.89l-.25-.02c-.2-.24-.47-.43-.61-.72.1-.09.09-.08.18-.15Z"/>
            <path class="cls-26" d="M809.08,435.95c.19,0,.32-.05.51.06.06.03.59.68.6.74.03.19-.69.79-.88.94l-2.99-.06c-.13-.04-.63-.58-.65-.7-.03-.19.71-.89.94-.96.82-.04,1.65-.04,2.46-.02Z"/>
            <path class="cls-10" d="M811.14,438.7c0,.11-.02.22-.03.33l-1.83,1.86c0-.39.18-2.88.3-3.08.03-.06.92-.83.99-.83.08,0,.61.56.64.68.05.25-.05.73-.07,1.03Z"/>
            <path class="cls-33" d="M811.11,439.03c-.06.94-.08,2.6-.29,3.45-.04.15-.11.27-.24.36-.1.03-.19-.18-.27-.27-.18-.21-.89-1.1-.99-1.29-.09-.17-.05-.22-.05-.38l1.83-1.86Z"/>
            <g>
              <path class="cls-26" d="M808.91,441.37c-.29.66-.99,1.09-1.32,1.74-.06,0-.11-.01-.17-.01-.42,0-.97.07-1.39.05-.31-.01-1.43.01-1.13-.51.04-.07,1.07-1.17,1.15-1.21.6-.25,2.15.13,2.85-.06Z"/>
              <path class="cls-37" d="M810.14,442.72c.06.08.14.2.14.3-.03.12-.59.15-.73.15-.62,0-1.32-.07-1.96-.08.33-.65,1.03-1.08,1.32-1.74l.2.1c.31.42.73.85,1.03,1.26Z"/>
            </g>
            <path class="cls-26" d="M811.5,434.67c-.01.42.07.97.05,1.39-.01.3.01,1.43-.51,1.13-.07-.04-1.17-1.07-1.2-1.15-.26-.59.15-2.84-.04-3.54l.09-.21c.42-.31.73-.92,1.14-1.22.09-.06.2-.15.31-.15.12.04.25,1.48.25,1.62,0,.62-.07,1.32-.08,1.96,0,.06-.01.11-.01.17Z"/>
            <path class="cls-38" d="M806.27,431.51s.07.06.08.09c0,.05,0,.19-.02.25-.17-.07-.21-.25-.31-.36l.25.02Z"/>
          </g>
        </g>
        <path class="cls-8" d="M860.32,442.85c2.85.37,1.04,1.81-4.34,2.12-5.78.33-27.11.46-33.07.35-6.12-.11-5.86-1.31.27-2.13l37.13-.34Z"/>
        <path class="cls-8" d="M860.5,437.17c2.85.37,1.04,1.81-4.34,2.12-5.78.33-27.11.46-33.07.35-6.12-.11-5.86-1.31.27-2.13l37.13-.34Z"/>
        <path class="cls-8" d="M860.32,431.49c2.85.37,1.04,1.81-4.34,2.12-5.78.33-27.11.46-33.07.35-6.12-.11-5.86-1.31.27-2.13l37.13-.34Z"/>
      </g>
      <rect class="cls-14" x="56.59" y="943.57" width="917.81" height="160.85" rx="35.58" ry="35.58"/>
      <g>
        <path class="cls-9" d="M87.35,1050.82v-19.86l10.73-3.16v-48.07h74.81v45.79l-56.02,16.57v26.18h-18.79v-20.62l-10.73,3.16ZM116.87,1022.23l37.22-11v-13.53h-37.22v24.54Z"/>
        <path class="cls-9" d="M173.54,1068.27l17.57-70.58h-8.93v-17.96h50.04l21.89,88.54h-19.44l-5.47-22.14h-30.67l-5.47,22.14h-19.51ZM202.98,1028.17h21.74l-7.63-30.48h-6.48l-7.63,30.48Z"/>
        <path class="cls-9" d="M248.2,997.69v-17.96h85.54v32.64l-18.79-4.55v-10.12h-37.22v52.62h37.22v-10.12l18.79-4.55v32.64h-74.81v-70.58h-10.73Z"/>
        <path class="cls-9" d="M339.5,997.69v-17.96h85.54v88.54h-18.79v-70.58h-37.22v70.58h-18.79v-70.58h-10.73Z"/>
        <path class="cls-9" d="M432.23,997.69v-17.96h85.61v32.64l-18.79-4.55v-10.12h-37.22v17.33h30.6v17.96h-30.6v17.33h37.22v-10.12l18.79-4.55v32.64h-74.81v-70.58h-10.8Z"/>
        <path class="cls-9" d="M527.92,1027.16v-47.43h18.79v33.14l36.72,10.88v-44.02h18.79v49.59l10.73,3.16v19.86l-10.73-3.16v19.1h-18.79v-24.67l-55.51-16.44Z"/>
        <path class="cls-9" d="M613.67,1068.27l17.57-70.58h-8.93v-17.96h50.04l21.89,88.54h-19.44l-5.47-22.14h-30.67l-5.47,22.14h-19.51ZM643.12,1028.17h21.74l-7.63-30.48h-6.48l-7.63,30.48Z"/>
        <path class="cls-9" d="M689.06,1015.15v-35.42h80.57v35.42l-18.79-4.55v-12.9h-12.1v70.58h-18.79v-70.58h-12.1v12.9l-18.79,4.55Z"/>
        <path class="cls-9" d="M771.78,1051.2v-22.64l10.73-5.06v-43.77h18.79v34.79l36.79-17.46v-17.33h18.79v31.12l-29.02,13.79,16.99,24.67h12.46v18.97h-23.62l-23.69-35.29-8.71,4.17v31.12h-18.79v-22.14l-10.73,5.06Z"/>
        <path class="cls-9" d="M863.08,1068.27l17.57-70.58h-8.93v-17.96h50.04l21.89,88.54h-19.44l-5.47-22.14h-30.67l-5.47,22.14h-19.51ZM892.53,1028.17h21.74l-7.63-30.48h-6.48l-7.63,30.48Z"/>
      </g>
    </g>
  </g>
</svg>